<svg width="13" height="15" viewBox="0 0 13 15" fill="none" xmlns="http://www.w3.org/2000/svg">
<path d="M0.389 14.54C-0.071 14.265 0.007 14.11 0.003 13.61C-0.002 13.049 0.003 12.485 0.01 11.923C0.026 11.093 0.274 10.23 0.716 9.524C1.4 8.421 2.497 7.638 3.763 7.351C4.388 7.208 5.413 7.247 6.084 7.247C6.855 7.265 7.672 7.192 8.432 7.34C8.979 7.458 9.53 7.684 10.002 7.978C11.255 8.758 12.126 10.165 12.223 11.642C12.275 12.428 12.234 13.25 12.239 14.038C12.24 14.293 12.058 14.426 11.86 14.54H0.389Z" fill="#e7e7e7"/>
<path d="M9.34 3.216C9.34 4.992 7.9 6.432 6.124 6.432C4.348 6.432 2.908 4.992 2.908 3.216C2.908 1.44 4.348 0 6.124 0C7.9 0 9.34 1.44 9.34 3.216Z" fill="#e7e7e7"/>
</svg>
