<svg width="530" height="410" viewBox="0 0 530 410" fill="none" xmlns="http://www.w3.org/2000/svg">
<path d="M456.901 180.645C456.467 178.947 456.18 178.164 454.372 178.032C454.4 178.069 454.428 178.107 454.455 178.144C454.476 178.173 454.497 178.202 454.518 178.231C454.52 178.234 454.522 178.236 454.524 178.239C454.539 178.259 454.553 178.279 454.568 178.3C454.575 178.309 454.582 178.319 454.589 178.329C454.617 178.369 454.651 178.416 454.68 178.456C454.687 178.466 454.689 178.468 454.696 178.478C454.714 178.504 454.732 178.53 454.751 178.556C455.367 179.422 456.014 180.33 456.901 180.645Z" fill="#588B8B"/>
<path d="M456.901 180.645C456.467 178.947 456.18 178.164 454.372 178.032C454.4 178.069 454.428 178.107 454.455 178.144C454.476 178.173 454.497 178.202 454.518 178.231C454.52 178.234 454.522 178.236 454.524 178.239C454.539 178.259 454.553 178.279 454.568 178.3C454.575 178.309 454.582 178.319 454.589 178.329C454.617 178.369 454.651 178.416 454.68 178.456C454.687 178.466 454.689 178.468 454.696 178.478C454.714 178.504 454.732 178.53 454.751 178.556C455.367 179.422 456.014 180.33 456.901 180.645Z" fill="white"/>
<path d="M456.901 180.645C456.467 178.947 456.18 178.164 454.372 178.032C454.4 178.069 454.428 178.107 454.455 178.144C454.476 178.173 454.497 178.202 454.518 178.231C454.52 178.234 454.522 178.236 454.524 178.239C454.539 178.259 454.553 178.279 454.568 178.3C454.575 178.309 454.582 178.319 454.589 178.329C454.617 178.369 454.651 178.416 454.68 178.456C454.687 178.466 454.689 178.468 454.696 178.478C454.714 178.504 454.732 178.53 454.751 178.556C455.367 179.422 456.014 180.33 456.901 180.645Z" fill="#588B8B" fill-opacity="0.3"/>
<path d="M293.163 131.181C293.854 129.781 293.979 129.136 293.648 127.591C293.612 127.68 293.576 127.766 293.542 127.849C293.032 129.082 292.749 129.768 293.163 131.181Z" fill="#588B8B"/>
<path d="M293.163 131.181C293.854 129.781 293.979 129.136 293.648 127.591C293.612 127.68 293.576 127.766 293.542 127.849C293.032 129.082 292.749 129.768 293.163 131.181Z" fill="white"/>
<path d="M293.163 131.181C293.854 129.781 293.979 129.136 293.648 127.591C293.612 127.68 293.576 127.766 293.542 127.849C293.032 129.082 292.749 129.768 293.163 131.181Z" fill="#588B8B" fill-opacity="0.3"/>
<path d="M301.868 163.474C301.882 163.505 301.895 163.536 301.908 163.566C301.919 163.591 301.93 163.616 301.941 163.641C301.943 163.646 301.945 163.651 301.947 163.656C301.95 163.663 301.953 163.67 301.956 163.676C301.964 163.696 301.972 163.715 301.98 163.734C302.004 163.788 302.026 163.841 302.049 163.894C302.055 163.908 302.06 163.921 302.066 163.934C302.392 164.7 302.694 165.409 303.235 166.064L302.971 166.559C301.929 165.452 301.797 165.213 301.088 163.843L301.868 163.474Z" fill="#588B8B"/>
<path d="M301.868 163.474C301.882 163.505 301.895 163.536 301.908 163.566C301.919 163.591 301.93 163.616 301.941 163.641C301.943 163.646 301.945 163.651 301.947 163.656C301.95 163.663 301.953 163.67 301.956 163.676C301.964 163.696 301.972 163.715 301.98 163.734C302.004 163.788 302.026 163.841 302.049 163.894C302.055 163.908 302.06 163.921 302.066 163.934C302.392 164.7 302.694 165.409 303.235 166.064L302.971 166.559C301.929 165.452 301.797 165.213 301.088 163.843L301.868 163.474Z" fill="white"/>
<path d="M301.868 163.474C301.882 163.505 301.895 163.536 301.908 163.566C301.919 163.591 301.93 163.616 301.941 163.641C301.943 163.646 301.945 163.651 301.947 163.656C301.95 163.663 301.953 163.67 301.956 163.676C301.964 163.696 301.972 163.715 301.98 163.734C302.004 163.788 302.026 163.841 302.049 163.894C302.055 163.908 302.06 163.921 302.066 163.934C302.392 164.7 302.694 165.409 303.235 166.064L302.971 166.559C301.929 165.452 301.797 165.213 301.088 163.843L301.868 163.474Z" fill="#588B8B" fill-opacity="0.3"/>
<path fill-rule="evenodd" clip-rule="evenodd" d="M282.072 182.537C282.063 182.55 282.054 182.563 282.045 182.576C282.018 182.615 281.991 182.654 281.965 182.693C281.92 182.758 281.875 182.824 281.83 182.89C281.825 182.898 281.819 182.907 281.813 182.915C281.803 182.931 281.792 182.947 281.781 182.963C281.76 182.994 281.74 183.025 281.719 183.056C281.712 183.067 281.704 183.078 281.697 183.089C281.695 183.092 281.692 183.096 281.69 183.1C281.663 183.14 281.637 183.179 281.61 183.219C281.569 183.281 281.528 183.344 281.487 183.406C281.47 183.432 281.453 183.459 281.435 183.486C281.433 183.489 281.431 183.492 281.429 183.495C281.427 183.498 281.425 183.502 281.423 183.505C281.415 183.517 281.407 183.529 281.4 183.541C281.382 183.568 281.364 183.595 281.346 183.622C281.34 183.633 281.333 183.643 281.327 183.653C281.313 183.674 281.3 183.694 281.287 183.715C281.284 183.719 281.282 183.723 281.279 183.727C281.279 183.727 281.279 183.727 281.279 183.727C281.275 183.734 281.27 183.741 281.265 183.749C281.273 183.737 281.28 183.726 281.287 183.715C281.3 183.694 281.313 183.674 281.327 183.653C281.333 183.643 281.34 183.633 281.346 183.622C281.364 183.595 281.382 183.568 281.4 183.541L281.423 183.505L281.429 183.495L281.435 183.486L281.487 183.406C281.528 183.344 281.569 183.281 281.61 183.219C281.637 183.179 281.663 183.14 281.69 183.1L281.697 183.089C281.704 183.078 281.712 183.067 281.719 183.056C281.74 183.025 281.76 182.994 281.781 182.963C281.792 182.947 281.803 182.931 281.813 182.915L281.83 182.89C281.875 182.824 281.92 182.758 281.965 182.693L282.045 182.576L282.072 182.537Z" fill="#588B8B"/>
<path fill-rule="evenodd" clip-rule="evenodd" d="M282.072 182.537C282.063 182.55 282.054 182.563 282.045 182.576C282.018 182.615 281.991 182.654 281.965 182.693C281.92 182.758 281.875 182.824 281.83 182.89C281.825 182.898 281.819 182.907 281.813 182.915C281.803 182.931 281.792 182.947 281.781 182.963C281.76 182.994 281.74 183.025 281.719 183.056C281.712 183.067 281.704 183.078 281.697 183.089C281.695 183.092 281.692 183.096 281.69 183.1C281.663 183.14 281.637 183.179 281.61 183.219C281.569 183.281 281.528 183.344 281.487 183.406C281.47 183.432 281.453 183.459 281.435 183.486C281.433 183.489 281.431 183.492 281.429 183.495C281.427 183.498 281.425 183.502 281.423 183.505C281.415 183.517 281.407 183.529 281.4 183.541C281.382 183.568 281.364 183.595 281.346 183.622C281.34 183.633 281.333 183.643 281.327 183.653C281.313 183.674 281.3 183.694 281.287 183.715C281.284 183.719 281.282 183.723 281.279 183.727C281.279 183.727 281.279 183.727 281.279 183.727C281.275 183.734 281.27 183.741 281.265 183.749C281.273 183.737 281.28 183.726 281.287 183.715C281.3 183.694 281.313 183.674 281.327 183.653C281.333 183.643 281.34 183.633 281.346 183.622C281.364 183.595 281.382 183.568 281.4 183.541L281.423 183.505L281.429 183.495L281.435 183.486L281.487 183.406C281.528 183.344 281.569 183.281 281.61 183.219C281.637 183.179 281.663 183.14 281.69 183.1L281.697 183.089C281.704 183.078 281.712 183.067 281.719 183.056C281.74 183.025 281.76 182.994 281.781 182.963C281.792 182.947 281.803 182.931 281.813 182.915L281.83 182.89C281.875 182.824 281.92 182.758 281.965 182.693L282.045 182.576L282.072 182.537Z" fill="white"/>
<path fill-rule="evenodd" clip-rule="evenodd" d="M282.072 182.537C282.063 182.55 282.054 182.563 282.045 182.576C282.018 182.615 281.991 182.654 281.965 182.693C281.92 182.758 281.875 182.824 281.83 182.89C281.825 182.898 281.819 182.907 281.813 182.915C281.803 182.931 281.792 182.947 281.781 182.963C281.76 182.994 281.74 183.025 281.719 183.056C281.712 183.067 281.704 183.078 281.697 183.089C281.695 183.092 281.692 183.096 281.69 183.1C281.663 183.14 281.637 183.179 281.61 183.219C281.569 183.281 281.528 183.344 281.487 183.406C281.47 183.432 281.453 183.459 281.435 183.486C281.433 183.489 281.431 183.492 281.429 183.495C281.427 183.498 281.425 183.502 281.423 183.505C281.415 183.517 281.407 183.529 281.4 183.541C281.382 183.568 281.364 183.595 281.346 183.622C281.34 183.633 281.333 183.643 281.327 183.653C281.313 183.674 281.3 183.694 281.287 183.715C281.284 183.719 281.282 183.723 281.279 183.727C281.279 183.727 281.279 183.727 281.279 183.727C281.275 183.734 281.27 183.741 281.265 183.749C281.273 183.737 281.28 183.726 281.287 183.715C281.3 183.694 281.313 183.674 281.327 183.653C281.333 183.643 281.34 183.633 281.346 183.622C281.364 183.595 281.382 183.568 281.4 183.541L281.423 183.505L281.429 183.495L281.435 183.486L281.487 183.406C281.528 183.344 281.569 183.281 281.61 183.219C281.637 183.179 281.663 183.14 281.69 183.1L281.697 183.089C281.704 183.078 281.712 183.067 281.719 183.056C281.74 183.025 281.76 182.994 281.781 182.963C281.792 182.947 281.803 182.931 281.813 182.915L281.83 182.89C281.875 182.824 281.92 182.758 281.965 182.693L282.045 182.576L282.072 182.537Z" fill="#588B8B" fill-opacity="0.3"/>
<path fill-rule="evenodd" clip-rule="evenodd" d="M282.072 182.537C282.063 182.55 282.054 182.563 282.045 182.576C282.018 182.615 281.991 182.654 281.965 182.693C281.92 182.758 281.875 182.824 281.83 182.89C281.825 182.898 281.819 182.907 281.813 182.915C281.803 182.931 281.792 182.947 281.781 182.963C281.76 182.994 281.74 183.025 281.719 183.056C281.712 183.067 281.704 183.078 281.697 183.089C281.695 183.092 281.692 183.096 281.69 183.1C281.663 183.14 281.637 183.179 281.61 183.219C281.569 183.281 281.528 183.344 281.487 183.406C281.47 183.432 281.453 183.459 281.435 183.486C281.433 183.489 281.431 183.492 281.429 183.495C281.427 183.498 281.425 183.502 281.423 183.505C281.415 183.517 281.407 183.529 281.4 183.541C281.382 183.568 281.364 183.595 281.346 183.622L281.327 183.653L281.287 183.715C281.3 183.694 281.313 183.674 281.327 183.653C281.333 183.643 281.34 183.633 281.346 183.622C281.364 183.595 281.382 183.568 281.4 183.541L281.423 183.505L281.429 183.495L281.435 183.486L281.487 183.406C281.528 183.344 281.569 183.281 281.61 183.219C281.637 183.179 281.663 183.14 281.69 183.1L281.697 183.089C281.704 183.078 281.712 183.067 281.719 183.056C281.74 183.025 281.76 182.994 281.781 182.963C281.792 182.947 281.803 182.931 281.813 182.915L281.83 182.89C281.875 182.824 281.92 182.758 281.965 182.693L282.045 182.576L282.072 182.537ZM456.901 180.645C456.467 178.947 456.18 178.164 454.372 178.032C454.4 178.069 454.428 178.107 454.455 178.144L454.518 178.231L454.524 178.239L454.568 178.3L454.589 178.329L454.68 178.456L454.696 178.478L454.751 178.556C455.367 179.422 456.014 180.33 456.901 180.645ZM301.868 163.474L301.908 163.566L301.941 163.641L301.947 163.656L301.956 163.676L301.98 163.734L302.049 163.894L302.066 163.934C302.392 164.7 302.694 165.409 303.235 166.064L302.971 166.559C301.929 165.452 301.797 165.213 301.088 163.843L301.868 163.474Z" fill="#588B8B"/>
<path fill-rule="evenodd" clip-rule="evenodd" d="M282.072 182.537C282.063 182.55 282.054 182.563 282.045 182.576C282.018 182.615 281.991 182.654 281.965 182.693C281.92 182.758 281.875 182.824 281.83 182.89C281.825 182.898 281.819 182.907 281.813 182.915C281.803 182.931 281.792 182.947 281.781 182.963C281.76 182.994 281.74 183.025 281.719 183.056C281.712 183.067 281.704 183.078 281.697 183.089C281.695 183.092 281.692 183.096 281.69 183.1C281.663 183.14 281.637 183.179 281.61 183.219C281.569 183.281 281.528 183.344 281.487 183.406C281.47 183.432 281.453 183.459 281.435 183.486C281.433 183.489 281.431 183.492 281.429 183.495C281.427 183.498 281.425 183.502 281.423 183.505C281.415 183.517 281.407 183.529 281.4 183.541C281.382 183.568 281.364 183.595 281.346 183.622L281.327 183.653L281.287 183.715C281.3 183.694 281.313 183.674 281.327 183.653C281.333 183.643 281.34 183.633 281.346 183.622C281.364 183.595 281.382 183.568 281.4 183.541L281.423 183.505L281.429 183.495L281.435 183.486L281.487 183.406C281.528 183.344 281.569 183.281 281.61 183.219C281.637 183.179 281.663 183.14 281.69 183.1L281.697 183.089C281.704 183.078 281.712 183.067 281.719 183.056C281.74 183.025 281.76 182.994 281.781 182.963C281.792 182.947 281.803 182.931 281.813 182.915L281.83 182.89C281.875 182.824 281.92 182.758 281.965 182.693L282.045 182.576L282.072 182.537ZM456.901 180.645C456.467 178.947 456.18 178.164 454.372 178.032C454.4 178.069 454.428 178.107 454.455 178.144L454.518 178.231L454.524 178.239L454.568 178.3L454.589 178.329L454.68 178.456L454.696 178.478L454.751 178.556C455.367 179.422 456.014 180.33 456.901 180.645ZM301.868 163.474L301.908 163.566L301.941 163.641L301.947 163.656L301.956 163.676L301.98 163.734L302.049 163.894L302.066 163.934C302.392 164.7 302.694 165.409 303.235 166.064L302.971 166.559C301.929 165.452 301.797 165.213 301.088 163.843L301.868 163.474Z" fill="white"/>
<path fill-rule="evenodd" clip-rule="evenodd" d="M282.072 182.537C282.063 182.55 282.054 182.563 282.045 182.576C282.018 182.615 281.991 182.654 281.965 182.693C281.92 182.758 281.875 182.824 281.83 182.89C281.825 182.898 281.819 182.907 281.813 182.915C281.803 182.931 281.792 182.947 281.781 182.963C281.76 182.994 281.74 183.025 281.719 183.056C281.712 183.067 281.704 183.078 281.697 183.089C281.695 183.092 281.692 183.096 281.69 183.1C281.663 183.14 281.637 183.179 281.61 183.219C281.569 183.281 281.528 183.344 281.487 183.406C281.47 183.432 281.453 183.459 281.435 183.486C281.433 183.489 281.431 183.492 281.429 183.495C281.427 183.498 281.425 183.502 281.423 183.505C281.415 183.517 281.407 183.529 281.4 183.541C281.382 183.568 281.364 183.595 281.346 183.622L281.327 183.653L281.287 183.715C281.3 183.694 281.313 183.674 281.327 183.653C281.333 183.643 281.34 183.633 281.346 183.622C281.364 183.595 281.382 183.568 281.4 183.541L281.423 183.505L281.429 183.495L281.435 183.486L281.487 183.406C281.528 183.344 281.569 183.281 281.61 183.219C281.637 183.179 281.663 183.14 281.69 183.1L281.697 183.089C281.704 183.078 281.712 183.067 281.719 183.056C281.74 183.025 281.76 182.994 281.781 182.963C281.792 182.947 281.803 182.931 281.813 182.915L281.83 182.89C281.875 182.824 281.92 182.758 281.965 182.693L282.045 182.576L282.072 182.537ZM456.901 180.645C456.467 178.947 456.18 178.164 454.372 178.032C454.4 178.069 454.428 178.107 454.455 178.144L454.518 178.231L454.524 178.239L454.568 178.3L454.589 178.329L454.68 178.456L454.696 178.478L454.751 178.556C455.367 179.422 456.014 180.33 456.901 180.645ZM301.868 163.474L301.908 163.566L301.941 163.641L301.947 163.656L301.956 163.676L301.98 163.734L302.049 163.894L302.066 163.934C302.392 164.7 302.694 165.409 303.235 166.064L302.971 166.559C301.929 165.452 301.797 165.213 301.088 163.843L301.868 163.474Z" fill="#588B8B" fill-opacity="0.3"/>
<path fill-rule="evenodd" clip-rule="evenodd" d="M456.901 180.645C456.467 178.947 456.18 178.164 454.372 178.032C454.4 178.069 454.428 178.107 454.455 178.144L454.518 178.231L454.524 178.239L454.568 178.3L454.589 178.329L454.68 178.456L454.696 178.478L454.751 178.556C455.367 179.422 456.014 180.33 456.901 180.645ZM293.163 131.181C293.854 129.781 293.979 129.136 293.648 127.591C293.612 127.68 293.576 127.766 293.542 127.849C293.032 129.082 292.749 129.768 293.163 131.181ZM310.813 59.8923L310.848 59.8473C310.497 58.5626 310.447 57.8336 310.632 56.9982C310.425 57.8631 310.462 58.5902 310.813 59.8923ZM465.672 196.649L465.736 196.724L465.747 196.697L465.672 196.649Z" fill="#588B8B"/>
<path fill-rule="evenodd" clip-rule="evenodd" d="M456.901 180.645C456.467 178.947 456.18 178.164 454.372 178.032C454.4 178.069 454.428 178.107 454.455 178.144L454.518 178.231L454.524 178.239L454.568 178.3L454.589 178.329L454.68 178.456L454.696 178.478L454.751 178.556C455.367 179.422 456.014 180.33 456.901 180.645ZM293.163 131.181C293.854 129.781 293.979 129.136 293.648 127.591C293.612 127.68 293.576 127.766 293.542 127.849C293.032 129.082 292.749 129.768 293.163 131.181ZM310.813 59.8923L310.848 59.8473C310.497 58.5626 310.447 57.8336 310.632 56.9982C310.425 57.8631 310.462 58.5902 310.813 59.8923ZM465.672 196.649L465.736 196.724L465.747 196.697L465.672 196.649Z" fill="white"/>
<path fill-rule="evenodd" clip-rule="evenodd" d="M456.901 180.645C456.467 178.947 456.18 178.164 454.372 178.032C454.4 178.069 454.428 178.107 454.455 178.144L454.518 178.231L454.524 178.239L454.568 178.3L454.589 178.329L454.68 178.456L454.696 178.478L454.751 178.556C455.367 179.422 456.014 180.33 456.901 180.645ZM293.163 131.181C293.854 129.781 293.979 129.136 293.648 127.591C293.612 127.68 293.576 127.766 293.542 127.849C293.032 129.082 292.749 129.768 293.163 131.181ZM310.813 59.8923L310.848 59.8473C310.497 58.5626 310.447 57.8336 310.632 56.9982C310.425 57.8631 310.462 58.5902 310.813 59.8923ZM465.672 196.649L465.736 196.724L465.747 196.697L465.672 196.649Z" fill="#588B8B" fill-opacity="0.3"/>
<path fill-rule="evenodd" clip-rule="evenodd" d="M456.901 180.645C456.467 178.947 456.18 178.164 454.372 178.032C454.4 178.069 454.428 178.107 454.455 178.144L454.518 178.231L454.524 178.239L454.568 178.3L454.589 178.329L454.68 178.456L454.696 178.478L454.751 178.556C455.367 179.422 456.014 180.33 456.901 180.645ZM293.163 131.181C293.854 129.781 293.979 129.136 293.648 127.591C293.612 127.68 293.576 127.766 293.542 127.849C293.032 129.082 292.749 129.768 293.163 131.181ZM310.813 59.8923L310.848 59.8473C310.497 58.5626 310.447 57.8336 310.632 56.9982C310.425 57.8631 310.462 58.5902 310.813 59.8923ZM301.908 163.566L301.868 163.474L301.088 163.843C301.797 165.213 301.929 165.452 302.971 166.559L303.235 166.064C302.694 165.409 302.392 164.7 302.066 163.934L302.049 163.894L301.98 163.734L301.956 163.676L301.947 163.656L301.941 163.641L301.908 163.566Z" fill="#588B8B"/>
<path fill-rule="evenodd" clip-rule="evenodd" d="M456.901 180.645C456.467 178.947 456.18 178.164 454.372 178.032C454.4 178.069 454.428 178.107 454.455 178.144L454.518 178.231L454.524 178.239L454.568 178.3L454.589 178.329L454.68 178.456L454.696 178.478L454.751 178.556C455.367 179.422 456.014 180.33 456.901 180.645ZM293.163 131.181C293.854 129.781 293.979 129.136 293.648 127.591C293.612 127.68 293.576 127.766 293.542 127.849C293.032 129.082 292.749 129.768 293.163 131.181ZM310.813 59.8923L310.848 59.8473C310.497 58.5626 310.447 57.8336 310.632 56.9982C310.425 57.8631 310.462 58.5902 310.813 59.8923ZM301.908 163.566L301.868 163.474L301.088 163.843C301.797 165.213 301.929 165.452 302.971 166.559L303.235 166.064C302.694 165.409 302.392 164.7 302.066 163.934L302.049 163.894L301.98 163.734L301.956 163.676L301.947 163.656L301.941 163.641L301.908 163.566Z" fill="white"/>
<path fill-rule="evenodd" clip-rule="evenodd" d="M456.901 180.645C456.467 178.947 456.18 178.164 454.372 178.032C454.4 178.069 454.428 178.107 454.455 178.144L454.518 178.231L454.524 178.239L454.568 178.3L454.589 178.329L454.68 178.456L454.696 178.478L454.751 178.556C455.367 179.422 456.014 180.33 456.901 180.645ZM293.163 131.181C293.854 129.781 293.979 129.136 293.648 127.591C293.612 127.68 293.576 127.766 293.542 127.849C293.032 129.082 292.749 129.768 293.163 131.181ZM310.813 59.8923L310.848 59.8473C310.497 58.5626 310.447 57.8336 310.632 56.9982C310.425 57.8631 310.462 58.5902 310.813 59.8923ZM301.908 163.566L301.868 163.474L301.088 163.843C301.797 165.213 301.929 165.452 302.971 166.559L303.235 166.064C302.694 165.409 302.392 164.7 302.066 163.934L302.049 163.894L301.98 163.734L301.956 163.676L301.947 163.656L301.941 163.641L301.908 163.566Z" fill="#588B8B" fill-opacity="0.3"/>
<path fill-rule="evenodd" clip-rule="evenodd" d="M456.901 180.645C456.467 178.947 456.18 178.164 454.372 178.032C454.4 178.069 454.428 178.107 454.455 178.144L454.518 178.231L454.524 178.239L454.568 178.3L454.589 178.329L454.68 178.456L454.696 178.478L454.751 178.556C455.367 179.422 456.014 180.33 456.901 180.645ZM293.163 131.181C293.854 129.781 293.979 129.136 293.648 127.591C293.612 127.68 293.576 127.766 293.542 127.849C293.032 129.082 292.749 129.768 293.163 131.181ZM310.813 59.8923L310.848 59.8473C310.497 58.5626 310.447 57.8336 310.632 56.9982C310.425 57.8631 310.462 58.5902 310.813 59.8923ZM465.672 196.649L465.736 196.724L465.747 196.697L465.672 196.649Z" fill="#588B8B"/>
<path fill-rule="evenodd" clip-rule="evenodd" d="M456.901 180.645C456.467 178.947 456.18 178.164 454.372 178.032C454.4 178.069 454.428 178.107 454.455 178.144L454.518 178.231L454.524 178.239L454.568 178.3L454.589 178.329L454.68 178.456L454.696 178.478L454.751 178.556C455.367 179.422 456.014 180.33 456.901 180.645ZM293.163 131.181C293.854 129.781 293.979 129.136 293.648 127.591C293.612 127.68 293.576 127.766 293.542 127.849C293.032 129.082 292.749 129.768 293.163 131.181ZM310.813 59.8923L310.848 59.8473C310.497 58.5626 310.447 57.8336 310.632 56.9982C310.425 57.8631 310.462 58.5902 310.813 59.8923ZM465.672 196.649L465.736 196.724L465.747 196.697L465.672 196.649Z" fill="white"/>
<path fill-rule="evenodd" clip-rule="evenodd" d="M456.901 180.645C456.467 178.947 456.18 178.164 454.372 178.032C454.4 178.069 454.428 178.107 454.455 178.144L454.518 178.231L454.524 178.239L454.568 178.3L454.589 178.329L454.68 178.456L454.696 178.478L454.751 178.556C455.367 179.422 456.014 180.33 456.901 180.645ZM293.163 131.181C293.854 129.781 293.979 129.136 293.648 127.591C293.612 127.68 293.576 127.766 293.542 127.849C293.032 129.082 292.749 129.768 293.163 131.181ZM310.813 59.8923L310.848 59.8473C310.497 58.5626 310.447 57.8336 310.632 56.9982C310.425 57.8631 310.462 58.5902 310.813 59.8923ZM465.672 196.649L465.736 196.724L465.747 196.697L465.672 196.649Z" fill="#588B8B" fill-opacity="0.3"/>
<path fill-rule="evenodd" clip-rule="evenodd" d="M454.372 178.032C456.18 178.164 456.467 178.947 456.901 180.645C456.014 180.33 455.367 179.422 454.751 178.556L454.696 178.478L454.68 178.456L454.589 178.329L454.568 178.3L454.524 178.239L454.518 178.231L454.455 178.144C454.428 178.107 454.4 178.069 454.372 178.032ZM293.648 127.591C293.979 129.136 293.854 129.781 293.163 131.181C292.749 129.768 293.032 129.082 293.542 127.849C293.576 127.766 293.612 127.68 293.648 127.591ZM310.848 59.8473L310.813 59.8923C310.462 58.5902 310.425 57.8631 310.632 56.9982C310.447 57.8336 310.497 58.5626 310.848 59.8473ZM465.736 196.724L465.672 196.649L465.747 196.697L465.736 196.724ZM285.205 178.639C286.406 177.381 287.815 176.353 289.362 175.594C287.81 176.356 286.4 177.392 285.196 178.656C285.2 178.652 285.201 178.644 285.205 178.639Z" fill="#588B8B"/>
<path fill-rule="evenodd" clip-rule="evenodd" d="M454.372 178.032C456.18 178.164 456.467 178.947 456.901 180.645C456.014 180.33 455.367 179.422 454.751 178.556L454.696 178.478L454.68 178.456L454.589 178.329L454.568 178.3L454.524 178.239L454.518 178.231L454.455 178.144C454.428 178.107 454.4 178.069 454.372 178.032ZM293.648 127.591C293.979 129.136 293.854 129.781 293.163 131.181C292.749 129.768 293.032 129.082 293.542 127.849C293.576 127.766 293.612 127.68 293.648 127.591ZM310.848 59.8473L310.813 59.8923C310.462 58.5902 310.425 57.8631 310.632 56.9982C310.447 57.8336 310.497 58.5626 310.848 59.8473ZM465.736 196.724L465.672 196.649L465.747 196.697L465.736 196.724ZM285.205 178.639C286.406 177.381 287.815 176.353 289.362 175.594C287.81 176.356 286.4 177.392 285.196 178.656C285.2 178.652 285.201 178.644 285.205 178.639Z" fill="white"/>
<path fill-rule="evenodd" clip-rule="evenodd" d="M454.372 178.032C456.18 178.164 456.467 178.947 456.901 180.645C456.014 180.33 455.367 179.422 454.751 178.556L454.696 178.478L454.68 178.456L454.589 178.329L454.568 178.3L454.524 178.239L454.518 178.231L454.455 178.144C454.428 178.107 454.4 178.069 454.372 178.032ZM293.648 127.591C293.979 129.136 293.854 129.781 293.163 131.181C292.749 129.768 293.032 129.082 293.542 127.849C293.576 127.766 293.612 127.68 293.648 127.591ZM310.848 59.8473L310.813 59.8923C310.462 58.5902 310.425 57.8631 310.632 56.9982C310.447 57.8336 310.497 58.5626 310.848 59.8473ZM465.736 196.724L465.672 196.649L465.747 196.697L465.736 196.724ZM285.205 178.639C286.406 177.381 287.815 176.353 289.362 175.594C287.81 176.356 286.4 177.392 285.196 178.656C285.2 178.652 285.201 178.644 285.205 178.639Z" fill="#588B8B" fill-opacity="0.3"/>
<path d="M485.196 306.12L485.066 306.366L484.525 307.384C479.149 317.517 476.253 328.581 474.072 340.304C473.165 345.184 472.393 350.107 471.607 355.117C471.447 356.135 471.287 357.157 471.125 358.183C470.172 364.219 469.16 370.358 467.854 376.453C465.259 388.561 454.513 395.963 443.169 395.869L354.491 395.134H298.694L242.85 396H242.787C242.785 396 242.778 395.999 242.773 395.999C242.763 395.999 242.748 395.999 242.728 395.999L242.674 395.998L242.549 395.997L241.846 395.989L241.324 395.983C240.75 395.976 240.014 395.967 239.127 395.957C236.759 395.93 233.316 395.891 229.019 395.845C220.424 395.754 208.412 395.632 194.741 395.515C167.394 395.282 133.428 395.066 106.907 395.134C89.302 395.179 65.8974 395.469 49.5308 395.701C36.0309 395.892 24.3443 385.684 22.6163 371.695C19.7164 348.218 17.5751 322.745 20.1596 300.207C20.4443 297.724 20.3438 294.746 20.2076 291.244L20.1971 290.975C20.0706 287.732 19.9263 284.034 20.28 280.681C20.7328 276.373 21.4007 271.926 22.0485 267.613C22.4455 264.969 22.835 262.376 23.1628 259.896L23.17 259.841L23.1791 259.785C23.5742 257.237 23.9044 254.27 24.2758 250.933C24.4211 249.627 24.5729 248.264 24.7372 246.847C25.3097 241.912 26.0205 236.487 27.1269 231.215C29.2573 221.066 33.1637 209.817 42.0876 204.549C57.6036 195.39 73.663 187.039 89.7827 179.351C91.8032 178.387 93.9553 177.475 95.9782 176.618C96.9763 176.195 97.9549 175.78 98.8637 175.382C101.755 174.116 104.384 172.837 106.783 171.238C110.255 168.935 111.858 166.291 114.178 162.463C114.963 161.168 115.83 159.737 116.879 158.138L116.936 158.051L116.996 157.968C117.877 156.743 118.9 155.861 119.642 155.251C119.893 155.044 120.108 154.87 120.3 154.716C120.762 154.343 121.084 154.083 121.44 153.738C122.109 153.091 122.771 152.274 123.057 150.183C123.663 145.761 122.402 140.289 120.099 135.945C119.228 135.993 118.346 135.992 117.466 135.881C115.359 135.617 113.567 134.811 111.61 133.628L110.472 132.939L109.854 131.733C108.436 128.965 107.641 126.048 107.09 123.414C106.77 121.887 106.394 120.424 105.987 118.838C105.759 117.953 105.522 117.03 105.279 116.035C104.641 113.421 104.024 110.529 103.836 107.568C103.727 105.864 104.017 103.996 104.206 102.774C104.233 102.603 104.257 102.445 104.278 102.302C104.506 100.76 104.532 100.04 104.455 99.6246C103.877 96.5209 103.234 93.5939 102.58 90.6153C102.126 88.5497 101.667 86.4585 101.22 84.266C100.174 79.136 99.293 73.8522 99.1841 68.5999C98.9617 57.8718 101.992 47.4722 112.331 38.2012C112.334 38.1967 112.334 38.1973 112.337 38.1927C112.34 38.1881 112.348 38.1771 112.351 38.1722C112.528 37.8939 112.743 37.5316 113.027 37.0532L113.035 37.039C113.302 36.5905 113.623 36.0499 113.939 35.5543C114.223 35.1107 114.651 34.464 115.143 33.9168L115.689 33.316C121.372 27.1388 128.2 22.0196 135.324 18.0839L135.341 18.0755C136.609 17.3816 138.298 16.7528 139.666 16.2683C140.361 16.0221 140.978 15.8109 141.538 15.6195C142.254 15.3743 142.878 15.161 143.45 14.9477L145.374 14.2297L147.183 15.2204C147.956 15.6434 148.724 15.8667 149.822 16.0724C150.062 16.1174 150.361 16.1671 150.701 16.2236C151.696 16.3888 153.044 16.6128 154.303 16.9488C156.238 17.4651 157.651 18.542 158.546 19.3296C158.699 19.1485 158.87 18.9482 159.044 18.755C159.233 18.5447 159.487 18.2723 159.779 18.0089C162.968 15.1255 166.403 13.8906 170.018 14.0076C173.359 14.1158 176.505 15.3814 179.203 16.6348C186.319 19.9405 193.146 24.7531 198.58 30.8022C199.448 31.7679 200.199 32.8074 200.791 33.6291C201.401 34.4756 201.859 35.1112 202.329 35.6668C204.408 37.7709 206.103 39.6253 207.933 41.7368C211.195 45.5018 213.686 48.623 215.136 52.3761C216.613 56.1988 216.844 60.2128 216.732 65.3877C216.712 66.3042 216.711 67.417 216.71 68.6059C216.709 70.8377 216.706 73.3742 216.58 75.55C216.588 77.5646 215.821 79.2932 215.47 80.0857L215.446 80.14C215.376 80.2974 215.316 80.4308 215.263 80.5478L215.223 80.6372C215.103 80.9034 215.022 81.0846 214.938 81.2947C214.893 81.4064 214.871 81.4744 214.861 81.5056C214.509 84.0473 214.061 86.5913 213.631 89.0256C213.246 91.211 212.877 93.3099 212.574 95.3702L212.449 96.2513C212.281 97.4687 212.373 99.0055 212.595 101.132C212.623 101.4 212.654 101.682 212.686 101.975C212.878 103.745 213.114 105.91 213.067 107.925C213.012 110.257 212.902 112.572 212.796 114.818L212.768 115.421L212.75 115.802C212.63 118.38 212.524 120.876 212.506 123.375L212.494 124.952L211.582 126.215C210.159 128.184 208.562 129.793 206.316 130.701C205.576 131 204.821 131.193 204.079 131.322C203.504 133.845 202.891 136.51 201.384 140.044C200.843 141.313 199.851 143.284 198.95 145.074L198.945 145.083C198.811 145.35 198.679 145.612 198.551 145.867C198.028 146.91 197.544 147.881 197.161 148.69C196.97 149.093 196.818 149.43 196.704 149.696C196.636 149.853 196.595 149.957 196.572 150.016C196.562 150.043 196.555 150.061 196.552 150.07C196.461 150.361 196.322 151.139 196.253 152.533C196.188 153.836 196.193 155.374 196.238 157.011C196.281 158.606 196.359 160.219 196.433 161.727L196.437 161.826C196.51 163.316 196.581 164.778 196.593 165.887C196.592 165.77 196.593 165.775 196.631 165.927C196.682 166.134 196.8 166.614 197.073 167.432C197.462 168.602 198.013 170.026 198.624 171.442C199.236 172.862 199.869 174.183 200.407 175.163C200.611 175.534 200.779 175.814 200.906 176.013C204.388 178.148 208.146 179.932 212.129 181.679C213.44 182.254 214.814 182.841 216.196 183.431C219.105 184.674 222.115 185.96 224.995 187.329C228.684 189.083 236.283 192.834 243.406 197.115C246.96 199.25 250.499 201.579 253.405 203.912C256.04 206.028 258.789 208.633 260.147 211.538L260.274 211.82L260.471 212.285C262.491 217.139 263.972 223.664 265.061 229.886C265.424 231.96 265.746 234.04 266.037 236.066L266.086 236.027C266.134 235.853 266.187 235.663 266.242 235.46C266.503 234.49 266.813 233.278 267.126 232.024C267.751 229.516 268.367 226.926 268.591 225.949C269.026 224.058 269.804 221.522 270.54 219.12L270.553 219.078C270.733 218.491 270.91 217.911 271.08 217.351C271.962 214.436 272.594 212.13 272.792 210.787C272.689 208.995 272.477 207.173 272.239 205.173L272.226 205.062C271.98 203 271.712 200.741 271.601 198.443C271.392 194.085 272.998 189.397 274.886 185.56C276.821 181.628 279.402 177.885 281.898 175.286L282.198 174.977C283.716 173.452 285.466 172.195 287.38 171.256L287.391 171.251L287.404 171.245C289.051 170.449 292.127 169.568 294.95 168.878C292.57 164.269 290.638 158.642 289.128 153.236C286.904 145.275 285.374 136.974 284.709 131.197L284.703 131.149L284.699 131.101C284.009 123.894 285.193 116.835 286.869 110.264C287.839 106.462 289.101 102.41 290.291 98.5897C291.064 96.1071 291.807 93.7224 292.42 91.5676C294.862 82.9728 297.601 75.9737 301.473 68.0075C301.881 67.1664 302.227 66.3935 302.611 65.5332C302.968 64.7368 303.364 63.8503 303.875 62.7661C304.456 61.533 305.14 60.1529 305.912 58.8669C305.855 58.2323 305.856 57.5694 305.946 56.8686C306.086 55.779 306.442 54.7377 306.738 53.9358L306.758 53.88L306.818 53.7198L306.857 53.6141C306.889 53.5282 306.92 53.446 306.949 53.3678C307.007 53.2083 307.053 53.0637 307.13 52.8192L307.133 52.8088L307.174 52.6816L307.181 52.6581L307.226 52.5186C307.344 52.1471 307.529 51.5772 307.796 50.987C308.23 50.0223 308.942 48.8695 310.136 47.9576C311.892 45.3664 313.968 42.4574 316.63 39.9399L317.229 39.3888C318.36 38.3777 319.822 37.4974 320.918 36.8515C321.223 36.6715 321.52 36.4984 321.793 36.3389C322.656 35.8356 323.369 35.4198 323.996 34.9957C325.394 34.049 326.834 32.9312 328.445 31.6801C329.212 31.0851 330.017 30.4599 330.875 29.8086C333.352 27.9293 336.218 25.8783 339.095 24.5841C340.04 24.1594 340.94 24.11 341.311 24.0958C341.797 24.0772 342.275 24.1031 342.667 24.1351C343.388 24.194 344.218 24.3087 344.924 24.4063L345.085 24.4285C345.893 24.5398 346.594 24.6331 347.202 24.6825C347.665 24.7201 347.909 24.7205 347.985 24.7191C348.004 24.7187 348.003 24.7151 348.003 24.7158C349.06 24.5224 350.072 24.2277 351.295 23.8568L351.531 23.7851C352.655 23.4436 353.998 23.0353 355.438 22.747C357.078 22.4186 358.967 22.3062 360.482 22.2212L360.838 22.2013C362.349 22.117 363.526 22.0513 364.451 21.9072C372.184 20.7027 378.314 20.8272 384.201 22.7076C389.995 24.558 395.146 27.9868 401.054 32.5671C414.97 43.3288 423.452 58.9472 429.452 74.5414C430.948 78.4299 432.168 82.6455 433.313 86.5978C433.892 88.5971 434.452 90.5291 435.017 92.3174C438.408 103.036 441.246 113.831 444.015 124.583C444.711 126.981 445.43 129.098 446.185 131.321C446.769 133.041 447.375 134.825 448.009 136.853L448.28 137.744C448.894 139.819 449.386 141.87 449.84 143.816C449.923 144.172 450.005 144.526 450.085 144.874C450.518 146.741 450.924 148.494 451.404 150.243C452.301 153.496 453.013 156.173 453.623 159.695L453.723 160.193C454.293 162.705 455.9 165.502 458.232 168.978C458.604 169.533 459.002 170.113 459.411 170.712C461.304 173.477 463.48 176.657 464.921 179.835L465.256 180.609L465.407 180.975L465.499 181.361C465.52 181.451 465.546 181.555 465.575 181.671C465.742 182.337 466.01 183.412 466.084 184.68C466.774 185.398 467.79 186.54 468.412 187.88L469.789 190.844L469.315 191.366L470.884 192.145L471.536 193.967C471.574 194.073 471.595 194.127 471.632 194.221L471.664 194.302L471.669 194.312C471.707 194.406 471.95 194.997 472.044 195.726C472.048 195.761 472.052 195.793 472.055 195.825L472.058 195.85L472.061 195.882C472.062 195.902 472.064 195.922 472.066 195.941L472.069 195.99L472.07 196.001C472.075 196.074 472.078 196.145 472.081 196.214C472.823 197.022 473.433 197.814 473.918 198.444L474.035 198.596C475.308 200.247 475.984 201.055 476.699 201.52C477.843 202.223 479.071 202.821 480.488 203.468C480.796 203.608 481.12 203.754 481.455 203.905C482.414 204.337 483.466 204.81 484.513 205.325L485.119 205.627C492.418 209.348 497.519 214.604 502.413 219.648C502.881 220.13 503.348 220.61 503.814 221.087C508.037 225.408 510.321 229.569 510.87 234.489C511.359 238.862 510.379 243.437 509.374 248.13L509.292 248.51C504.876 269.129 495.17 287.374 485.826 304.937L485.797 304.991L485.771 305.04L485.693 305.186L485.597 305.367L485.196 306.12ZM456.901 180.645C456.467 178.947 456.18 178.164 454.372 178.032C454.4 178.069 454.428 178.107 454.455 178.144L454.518 178.231L454.524 178.239L454.568 178.3L454.589 178.329L454.68 178.456L454.696 178.478L454.751 178.556C455.367 179.422 456.014 180.33 456.901 180.645ZM293.163 131.181C293.854 129.781 293.979 129.136 293.648 127.591C293.612 127.68 293.576 127.766 293.542 127.849C293.032 129.082 292.749 129.768 293.163 131.181ZM301.868 163.474L301.908 163.566L301.941 163.641L301.947 163.656L301.956 163.676L301.98 163.734L302.049 163.894L302.066 163.934C302.392 164.7 302.694 165.409 303.235 166.064L302.971 166.559C301.929 165.452 301.797 165.213 301.088 163.843L301.868 163.474ZM310.813 59.8923L310.848 59.8473C310.497 58.5626 310.447 57.8336 310.632 56.9982C310.425 57.8631 310.462 58.5902 310.813 59.8923ZM465.672 196.649L465.736 196.724L465.747 196.697L465.672 196.649ZM289.362 175.594C287.815 176.353 286.406 177.381 285.205 178.639C285.201 178.644 285.2 178.652 285.196 178.656C286.4 177.392 287.81 176.356 289.362 175.594Z" fill="#588B8B"/>
<path d="M485.196 306.12L485.066 306.366L484.525 307.384C479.149 317.517 476.253 328.581 474.072 340.304C473.165 345.184 472.393 350.107 471.607 355.117C471.447 356.135 471.287 357.157 471.125 358.183C470.172 364.219 469.16 370.358 467.854 376.453C465.259 388.561 454.513 395.963 443.169 395.869L354.491 395.134H298.694L242.85 396H242.787C242.785 396 242.778 395.999 242.773 395.999C242.763 395.999 242.748 395.999 242.728 395.999L242.674 395.998L242.549 395.997L241.846 395.989L241.324 395.983C240.75 395.976 240.014 395.967 239.127 395.957C236.759 395.93 233.316 395.891 229.019 395.845C220.424 395.754 208.412 395.632 194.741 395.515C167.394 395.282 133.428 395.066 106.907 395.134C89.302 395.179 65.8974 395.469 49.5308 395.701C36.0309 395.892 24.3443 385.684 22.6163 371.695C19.7164 348.218 17.5751 322.745 20.1596 300.207C20.4443 297.724 20.3438 294.746 20.2076 291.244L20.1971 290.975C20.0706 287.732 19.9263 284.034 20.28 280.681C20.7328 276.373 21.4007 271.926 22.0485 267.613C22.4455 264.969 22.835 262.376 23.1628 259.896L23.17 259.841L23.1791 259.785C23.5742 257.237 23.9044 254.27 24.2758 250.933C24.4211 249.627 24.5729 248.264 24.7372 246.847C25.3097 241.912 26.0205 236.487 27.1269 231.215C29.2573 221.066 33.1637 209.817 42.0876 204.549C57.6036 195.39 73.663 187.039 89.7827 179.351C91.8032 178.387 93.9553 177.475 95.9782 176.618C96.9763 176.195 97.9549 175.78 98.8637 175.382C101.755 174.116 104.384 172.837 106.783 171.238C110.255 168.935 111.858 166.291 114.178 162.463C114.963 161.168 115.83 159.737 116.879 158.138L116.936 158.051L116.996 157.968C117.877 156.743 118.9 155.861 119.642 155.251C119.893 155.044 120.108 154.87 120.3 154.716C120.762 154.343 121.084 154.083 121.44 153.738C122.109 153.091 122.771 152.274 123.057 150.183C123.663 145.761 122.402 140.289 120.099 135.945C119.228 135.993 118.346 135.992 117.466 135.881C115.359 135.617 113.567 134.811 111.61 133.628L110.472 132.939L109.854 131.733C108.436 128.965 107.641 126.048 107.09 123.414C106.77 121.887 106.394 120.424 105.987 118.838C105.759 117.953 105.522 117.03 105.279 116.035C104.641 113.421 104.024 110.529 103.836 107.568C103.727 105.864 104.017 103.996 104.206 102.774C104.233 102.603 104.257 102.445 104.278 102.302C104.506 100.76 104.532 100.04 104.455 99.6246C103.877 96.5209 103.234 93.5939 102.58 90.6153C102.126 88.5497 101.667 86.4585 101.22 84.266C100.174 79.136 99.293 73.8522 99.1841 68.5999C98.9617 57.8718 101.992 47.4722 112.331 38.2012C112.334 38.1967 112.334 38.1973 112.337 38.1927C112.34 38.1881 112.348 38.1771 112.351 38.1722C112.528 37.8939 112.743 37.5316 113.027 37.0532L113.035 37.039C113.302 36.5905 113.623 36.0499 113.939 35.5543C114.223 35.1107 114.651 34.464 115.143 33.9168L115.689 33.316C121.372 27.1388 128.2 22.0196 135.324 18.0839L135.341 18.0755C136.609 17.3816 138.298 16.7528 139.666 16.2683C140.361 16.0221 140.978 15.8109 141.538 15.6195C142.254 15.3743 142.878 15.161 143.45 14.9477L145.374 14.2297L147.183 15.2204C147.956 15.6434 148.724 15.8667 149.822 16.0724C150.062 16.1174 150.361 16.1671 150.701 16.2236C151.696 16.3888 153.044 16.6128 154.303 16.9488C156.238 17.4651 157.651 18.542 158.546 19.3296C158.699 19.1485 158.87 18.9482 159.044 18.755C159.233 18.5447 159.487 18.2723 159.779 18.0089C162.968 15.1255 166.403 13.8906 170.018 14.0076C173.359 14.1158 176.505 15.3814 179.203 16.6348C186.319 19.9405 193.146 24.7531 198.58 30.8022C199.448 31.7679 200.199 32.8074 200.791 33.6291C201.401 34.4756 201.859 35.1112 202.329 35.6668C204.408 37.7709 206.103 39.6253 207.933 41.7368C211.195 45.5018 213.686 48.623 215.136 52.3761C216.613 56.1988 216.844 60.2128 216.732 65.3877C216.712 66.3042 216.711 67.417 216.71 68.6059C216.709 70.8377 216.706 73.3742 216.58 75.55C216.588 77.5646 215.821 79.2932 215.47 80.0857L215.446 80.14C215.376 80.2974 215.316 80.4308 215.263 80.5478L215.223 80.6372C215.103 80.9034 215.022 81.0846 214.938 81.2947C214.893 81.4064 214.871 81.4744 214.861 81.5056C214.509 84.0473 214.061 86.5913 213.631 89.0256C213.246 91.211 212.877 93.3099 212.574 95.3702L212.449 96.2513C212.281 97.4687 212.373 99.0055 212.595 101.132C212.623 101.4 212.654 101.682 212.686 101.975C212.878 103.745 213.114 105.91 213.067 107.925C213.012 110.257 212.902 112.572 212.796 114.818L212.768 115.421L212.75 115.802C212.63 118.38 212.524 120.876 212.506 123.375L212.494 124.952L211.582 126.215C210.159 128.184 208.562 129.793 206.316 130.701C205.576 131 204.821 131.193 204.079 131.322C203.504 133.845 202.891 136.51 201.384 140.044C200.843 141.313 199.851 143.284 198.95 145.074L198.945 145.083C198.811 145.35 198.679 145.612 198.551 145.867C198.028 146.91 197.544 147.881 197.161 148.69C196.97 149.093 196.818 149.43 196.704 149.696C196.636 149.853 196.595 149.957 196.572 150.016C196.562 150.043 196.555 150.061 196.552 150.07C196.461 150.361 196.322 151.139 196.253 152.533C196.188 153.836 196.193 155.374 196.238 157.011C196.281 158.606 196.359 160.219 196.433 161.727L196.437 161.826C196.51 163.316 196.581 164.778 196.593 165.887C196.592 165.77 196.593 165.775 196.631 165.927C196.682 166.134 196.8 166.614 197.073 167.432C197.462 168.602 198.013 170.026 198.624 171.442C199.236 172.862 199.869 174.183 200.407 175.163C200.611 175.534 200.779 175.814 200.906 176.013C204.388 178.148 208.146 179.932 212.129 181.679C213.44 182.254 214.814 182.841 216.196 183.431C219.105 184.674 222.115 185.96 224.995 187.329C228.684 189.083 236.283 192.834 243.406 197.115C246.96 199.25 250.499 201.579 253.405 203.912C256.04 206.028 258.789 208.633 260.147 211.538L260.274 211.82L260.471 212.285C262.491 217.139 263.972 223.664 265.061 229.886C265.424 231.96 265.746 234.04 266.037 236.066L266.086 236.027C266.134 235.853 266.187 235.663 266.242 235.46C266.503 234.49 266.813 233.278 267.126 232.024C267.751 229.516 268.367 226.926 268.591 225.949C269.026 224.058 269.804 221.522 270.54 219.12L270.553 219.078C270.733 218.491 270.91 217.911 271.08 217.351C271.962 214.436 272.594 212.13 272.792 210.787C272.689 208.995 272.477 207.173 272.239 205.173L272.226 205.062C271.98 203 271.712 200.741 271.601 198.443C271.392 194.085 272.998 189.397 274.886 185.56C276.821 181.628 279.402 177.885 281.898 175.286L282.198 174.977C283.716 173.452 285.466 172.195 287.38 171.256L287.391 171.251L287.404 171.245C289.051 170.449 292.127 169.568 294.95 168.878C292.57 164.269 290.638 158.642 289.128 153.236C286.904 145.275 285.374 136.974 284.709 131.197L284.703 131.149L284.699 131.101C284.009 123.894 285.193 116.835 286.869 110.264C287.839 106.462 289.101 102.41 290.291 98.5897C291.064 96.1071 291.807 93.7224 292.42 91.5676C294.862 82.9728 297.601 75.9737 301.473 68.0075C301.881 67.1664 302.227 66.3935 302.611 65.5332C302.968 64.7368 303.364 63.8503 303.875 62.7661C304.456 61.533 305.14 60.1529 305.912 58.8669C305.855 58.2323 305.856 57.5694 305.946 56.8686C306.086 55.779 306.442 54.7377 306.738 53.9358L306.758 53.88L306.818 53.7198L306.857 53.6141C306.889 53.5282 306.92 53.446 306.949 53.3678C307.007 53.2083 307.053 53.0637 307.13 52.8192L307.133 52.8088L307.174 52.6816L307.181 52.6581L307.226 52.5186C307.344 52.1471 307.529 51.5772 307.796 50.987C308.23 50.0223 308.942 48.8695 310.136 47.9576C311.892 45.3664 313.968 42.4574 316.63 39.9399L317.229 39.3888C318.36 38.3777 319.822 37.4974 320.918 36.8515C321.223 36.6715 321.52 36.4984 321.793 36.3389C322.656 35.8356 323.369 35.4198 323.996 34.9957C325.394 34.049 326.834 32.9312 328.445 31.6801C329.212 31.0851 330.017 30.4599 330.875 29.8086C333.352 27.9293 336.218 25.8783 339.095 24.5841C340.04 24.1594 340.94 24.11 341.311 24.0958C341.797 24.0772 342.275 24.1031 342.667 24.1351C343.388 24.194 344.218 24.3087 344.924 24.4063L345.085 24.4285C345.893 24.5398 346.594 24.6331 347.202 24.6825C347.665 24.7201 347.909 24.7205 347.985 24.7191C348.004 24.7187 348.003 24.7151 348.003 24.7158C349.06 24.5224 350.072 24.2277 351.295 23.8568L351.531 23.7851C352.655 23.4436 353.998 23.0353 355.438 22.747C357.078 22.4186 358.967 22.3062 360.482 22.2212L360.838 22.2013C362.349 22.117 363.526 22.0513 364.451 21.9072C372.184 20.7027 378.314 20.8272 384.201 22.7076C389.995 24.558 395.146 27.9868 401.054 32.5671C414.97 43.3288 423.452 58.9472 429.452 74.5414C430.948 78.4299 432.168 82.6455 433.313 86.5978C433.892 88.5971 434.452 90.5291 435.017 92.3174C438.408 103.036 441.246 113.831 444.015 124.583C444.711 126.981 445.43 129.098 446.185 131.321C446.769 133.041 447.375 134.825 448.009 136.853L448.28 137.744C448.894 139.819 449.386 141.87 449.84 143.816C449.923 144.172 450.005 144.526 450.085 144.874C450.518 146.741 450.924 148.494 451.404 150.243C452.301 153.496 453.013 156.173 453.623 159.695L453.723 160.193C454.293 162.705 455.9 165.502 458.232 168.978C458.604 169.533 459.002 170.113 459.411 170.712C461.304 173.477 463.48 176.657 464.921 179.835L465.256 180.609L465.407 180.975L465.499 181.361C465.52 181.451 465.546 181.555 465.575 181.671C465.742 182.337 466.01 183.412 466.084 184.68C466.774 185.398 467.79 186.54 468.412 187.88L469.789 190.844L469.315 191.366L470.884 192.145L471.536 193.967C471.574 194.073 471.595 194.127 471.632 194.221L471.664 194.302L471.669 194.312C471.707 194.406 471.95 194.997 472.044 195.726C472.048 195.761 472.052 195.793 472.055 195.825L472.058 195.85L472.061 195.882C472.062 195.902 472.064 195.922 472.066 195.941L472.069 195.99L472.07 196.001C472.075 196.074 472.078 196.145 472.081 196.214C472.823 197.022 473.433 197.814 473.918 198.444L474.035 198.596C475.308 200.247 475.984 201.055 476.699 201.52C477.843 202.223 479.071 202.821 480.488 203.468C480.796 203.608 481.12 203.754 481.455 203.905C482.414 204.337 483.466 204.81 484.513 205.325L485.119 205.627C492.418 209.348 497.519 214.604 502.413 219.648C502.881 220.13 503.348 220.61 503.814 221.087C508.037 225.408 510.321 229.569 510.87 234.489C511.359 238.862 510.379 243.437 509.374 248.13L509.292 248.51C504.876 269.129 495.17 287.374 485.826 304.937L485.797 304.991L485.771 305.04L485.693 305.186L485.597 305.367L485.196 306.12ZM456.901 180.645C456.467 178.947 456.18 178.164 454.372 178.032C454.4 178.069 454.428 178.107 454.455 178.144L454.518 178.231L454.524 178.239L454.568 178.3L454.589 178.329L454.68 178.456L454.696 178.478L454.751 178.556C455.367 179.422 456.014 180.33 456.901 180.645ZM293.163 131.181C293.854 129.781 293.979 129.136 293.648 127.591C293.612 127.68 293.576 127.766 293.542 127.849C293.032 129.082 292.749 129.768 293.163 131.181ZM301.868 163.474L301.908 163.566L301.941 163.641L301.947 163.656L301.956 163.676L301.98 163.734L302.049 163.894L302.066 163.934C302.392 164.7 302.694 165.409 303.235 166.064L302.971 166.559C301.929 165.452 301.797 165.213 301.088 163.843L301.868 163.474ZM310.813 59.8923L310.848 59.8473C310.497 58.5626 310.447 57.8336 310.632 56.9982C310.425 57.8631 310.462 58.5902 310.813 59.8923ZM465.672 196.649L465.736 196.724L465.747 196.697L465.672 196.649ZM289.362 175.594C287.815 176.353 286.406 177.381 285.205 178.639C285.201 178.644 285.2 178.652 285.196 178.656C286.4 177.392 287.81 176.356 289.362 175.594Z" fill="white"/>
<path d="M485.196 306.12L485.066 306.366L484.525 307.384C479.149 317.517 476.253 328.581 474.072 340.304C473.165 345.184 472.393 350.107 471.607 355.117C471.447 356.135 471.287 357.157 471.125 358.183C470.172 364.219 469.16 370.358 467.854 376.453C465.259 388.561 454.513 395.963 443.169 395.869L354.491 395.134H298.694L242.85 396H242.787C242.785 396 242.778 395.999 242.773 395.999C242.763 395.999 242.748 395.999 242.728 395.999L242.674 395.998L242.549 395.997L241.846 395.989L241.324 395.983C240.75 395.976 240.014 395.967 239.127 395.957C236.759 395.93 233.316 395.891 229.019 395.845C220.424 395.754 208.412 395.632 194.741 395.515C167.394 395.282 133.428 395.066 106.907 395.134C89.302 395.179 65.8974 395.469 49.5308 395.701C36.0309 395.892 24.3443 385.684 22.6163 371.695C19.7164 348.218 17.5751 322.745 20.1596 300.207C20.4443 297.724 20.3438 294.746 20.2076 291.244L20.1971 290.975C20.0706 287.732 19.9263 284.034 20.28 280.681C20.7328 276.373 21.4007 271.926 22.0485 267.613C22.4455 264.969 22.835 262.376 23.1628 259.896L23.17 259.841L23.1791 259.785C23.5742 257.237 23.9044 254.27 24.2758 250.933C24.4211 249.627 24.5729 248.264 24.7372 246.847C25.3097 241.912 26.0205 236.487 27.1269 231.215C29.2573 221.066 33.1637 209.817 42.0876 204.549C57.6036 195.39 73.663 187.039 89.7827 179.351C91.8032 178.387 93.9553 177.475 95.9782 176.618C96.9763 176.195 97.9549 175.78 98.8637 175.382C101.755 174.116 104.384 172.837 106.783 171.238C110.255 168.935 111.858 166.291 114.178 162.463C114.963 161.168 115.83 159.737 116.879 158.138L116.936 158.051L116.996 157.968C117.877 156.743 118.9 155.861 119.642 155.251C119.893 155.044 120.108 154.87 120.3 154.716C120.762 154.343 121.084 154.083 121.44 153.738C122.109 153.091 122.771 152.274 123.057 150.183C123.663 145.761 122.402 140.289 120.099 135.945C119.228 135.993 118.346 135.992 117.466 135.881C115.359 135.617 113.567 134.811 111.61 133.628L110.472 132.939L109.854 131.733C108.436 128.965 107.641 126.048 107.09 123.414C106.77 121.887 106.394 120.424 105.987 118.838C105.759 117.953 105.522 117.03 105.279 116.035C104.641 113.421 104.024 110.529 103.836 107.568C103.727 105.864 104.017 103.996 104.206 102.774C104.233 102.603 104.257 102.445 104.278 102.302C104.506 100.76 104.532 100.04 104.455 99.6246C103.877 96.5209 103.234 93.5939 102.58 90.6153C102.126 88.5497 101.667 86.4585 101.22 84.266C100.174 79.136 99.293 73.8522 99.1841 68.5999C98.9617 57.8718 101.992 47.4722 112.331 38.2012C112.334 38.1967 112.334 38.1973 112.337 38.1927C112.34 38.1881 112.348 38.1771 112.351 38.1722C112.528 37.8939 112.743 37.5316 113.027 37.0532L113.035 37.039C113.302 36.5905 113.623 36.0499 113.939 35.5543C114.223 35.1107 114.651 34.464 115.143 33.9168L115.689 33.316C121.372 27.1388 128.2 22.0196 135.324 18.0839L135.341 18.0755C136.609 17.3816 138.298 16.7528 139.666 16.2683C140.361 16.0221 140.978 15.8109 141.538 15.6195C142.254 15.3743 142.878 15.161 143.45 14.9477L145.374 14.2297L147.183 15.2204C147.956 15.6434 148.724 15.8667 149.822 16.0724C150.062 16.1174 150.361 16.1671 150.701 16.2236C151.696 16.3888 153.044 16.6128 154.303 16.9488C156.238 17.4651 157.651 18.542 158.546 19.3296C158.699 19.1485 158.87 18.9482 159.044 18.755C159.233 18.5447 159.487 18.2723 159.779 18.0089C162.968 15.1255 166.403 13.8906 170.018 14.0076C173.359 14.1158 176.505 15.3814 179.203 16.6348C186.319 19.9405 193.146 24.7531 198.58 30.8022C199.448 31.7679 200.199 32.8074 200.791 33.6291C201.401 34.4756 201.859 35.1112 202.329 35.6668C204.408 37.7709 206.103 39.6253 207.933 41.7368C211.195 45.5018 213.686 48.623 215.136 52.3761C216.613 56.1988 216.844 60.2128 216.732 65.3877C216.712 66.3042 216.711 67.417 216.71 68.6059C216.709 70.8377 216.706 73.3742 216.58 75.55C216.588 77.5646 215.821 79.2932 215.47 80.0857L215.446 80.14C215.376 80.2974 215.316 80.4308 215.263 80.5478L215.223 80.6372C215.103 80.9034 215.022 81.0846 214.938 81.2947C214.893 81.4064 214.871 81.4744 214.861 81.5056C214.509 84.0473 214.061 86.5913 213.631 89.0256C213.246 91.211 212.877 93.3099 212.574 95.3702L212.449 96.2513C212.281 97.4687 212.373 99.0055 212.595 101.132C212.623 101.4 212.654 101.682 212.686 101.975C212.878 103.745 213.114 105.91 213.067 107.925C213.012 110.257 212.902 112.572 212.796 114.818L212.768 115.421L212.75 115.802C212.63 118.38 212.524 120.876 212.506 123.375L212.494 124.952L211.582 126.215C210.159 128.184 208.562 129.793 206.316 130.701C205.576 131 204.821 131.193 204.079 131.322C203.504 133.845 202.891 136.51 201.384 140.044C200.843 141.313 199.851 143.284 198.95 145.074L198.945 145.083C198.811 145.35 198.679 145.612 198.551 145.867C198.028 146.91 197.544 147.881 197.161 148.69C196.97 149.093 196.818 149.43 196.704 149.696C196.636 149.853 196.595 149.957 196.572 150.016C196.562 150.043 196.555 150.061 196.552 150.07C196.461 150.361 196.322 151.139 196.253 152.533C196.188 153.836 196.193 155.374 196.238 157.011C196.281 158.606 196.359 160.219 196.433 161.727L196.437 161.826C196.51 163.316 196.581 164.778 196.593 165.887C196.592 165.77 196.593 165.775 196.631 165.927C196.682 166.134 196.8 166.614 197.073 167.432C197.462 168.602 198.013 170.026 198.624 171.442C199.236 172.862 199.869 174.183 200.407 175.163C200.611 175.534 200.779 175.814 200.906 176.013C204.388 178.148 208.146 179.932 212.129 181.679C213.44 182.254 214.814 182.841 216.196 183.431C219.105 184.674 222.115 185.96 224.995 187.329C228.684 189.083 236.283 192.834 243.406 197.115C246.96 199.25 250.499 201.579 253.405 203.912C256.04 206.028 258.789 208.633 260.147 211.538L260.274 211.82L260.471 212.285C262.491 217.139 263.972 223.664 265.061 229.886C265.424 231.96 265.746 234.04 266.037 236.066L266.086 236.027C266.134 235.853 266.187 235.663 266.242 235.46C266.503 234.49 266.813 233.278 267.126 232.024C267.751 229.516 268.367 226.926 268.591 225.949C269.026 224.058 269.804 221.522 270.54 219.12L270.553 219.078C270.733 218.491 270.91 217.911 271.08 217.351C271.962 214.436 272.594 212.13 272.792 210.787C272.689 208.995 272.477 207.173 272.239 205.173L272.226 205.062C271.98 203 271.712 200.741 271.601 198.443C271.392 194.085 272.998 189.397 274.886 185.56C276.821 181.628 279.402 177.885 281.898 175.286L282.198 174.977C283.716 173.452 285.466 172.195 287.38 171.256L287.391 171.251L287.404 171.245C289.051 170.449 292.127 169.568 294.95 168.878C292.57 164.269 290.638 158.642 289.128 153.236C286.904 145.275 285.374 136.974 284.709 131.197L284.703 131.149L284.699 131.101C284.009 123.894 285.193 116.835 286.869 110.264C287.839 106.462 289.101 102.41 290.291 98.5897C291.064 96.1071 291.807 93.7224 292.42 91.5676C294.862 82.9728 297.601 75.9737 301.473 68.0075C301.881 67.1664 302.227 66.3935 302.611 65.5332C302.968 64.7368 303.364 63.8503 303.875 62.7661C304.456 61.533 305.14 60.1529 305.912 58.8669C305.855 58.2323 305.856 57.5694 305.946 56.8686C306.086 55.779 306.442 54.7377 306.738 53.9358L306.758 53.88L306.818 53.7198L306.857 53.6141C306.889 53.5282 306.92 53.446 306.949 53.3678C307.007 53.2083 307.053 53.0637 307.13 52.8192L307.133 52.8088L307.174 52.6816L307.181 52.6581L307.226 52.5186C307.344 52.1471 307.529 51.5772 307.796 50.987C308.23 50.0223 308.942 48.8695 310.136 47.9576C311.892 45.3664 313.968 42.4574 316.63 39.9399L317.229 39.3888C318.36 38.3777 319.822 37.4974 320.918 36.8515C321.223 36.6715 321.52 36.4984 321.793 36.3389C322.656 35.8356 323.369 35.4198 323.996 34.9957C325.394 34.049 326.834 32.9312 328.445 31.6801C329.212 31.0851 330.017 30.4599 330.875 29.8086C333.352 27.9293 336.218 25.8783 339.095 24.5841C340.04 24.1594 340.94 24.11 341.311 24.0958C341.797 24.0772 342.275 24.1031 342.667 24.1351C343.388 24.194 344.218 24.3087 344.924 24.4063L345.085 24.4285C345.893 24.5398 346.594 24.6331 347.202 24.6825C347.665 24.7201 347.909 24.7205 347.985 24.7191C348.004 24.7187 348.003 24.7151 348.003 24.7158C349.06 24.5224 350.072 24.2277 351.295 23.8568L351.531 23.7851C352.655 23.4436 353.998 23.0353 355.438 22.747C357.078 22.4186 358.967 22.3062 360.482 22.2212L360.838 22.2013C362.349 22.117 363.526 22.0513 364.451 21.9072C372.184 20.7027 378.314 20.8272 384.201 22.7076C389.995 24.558 395.146 27.9868 401.054 32.5671C414.97 43.3288 423.452 58.9472 429.452 74.5414C430.948 78.4299 432.168 82.6455 433.313 86.5978C433.892 88.5971 434.452 90.5291 435.017 92.3174C438.408 103.036 441.246 113.831 444.015 124.583C444.711 126.981 445.43 129.098 446.185 131.321C446.769 133.041 447.375 134.825 448.009 136.853L448.28 137.744C448.894 139.819 449.386 141.87 449.84 143.816C449.923 144.172 450.005 144.526 450.085 144.874C450.518 146.741 450.924 148.494 451.404 150.243C452.301 153.496 453.013 156.173 453.623 159.695L453.723 160.193C454.293 162.705 455.9 165.502 458.232 168.978C458.604 169.533 459.002 170.113 459.411 170.712C461.304 173.477 463.48 176.657 464.921 179.835L465.256 180.609L465.407 180.975L465.499 181.361C465.52 181.451 465.546 181.555 465.575 181.671C465.742 182.337 466.01 183.412 466.084 184.68C466.774 185.398 467.79 186.54 468.412 187.88L469.789 190.844L469.315 191.366L470.884 192.145L471.536 193.967C471.574 194.073 471.595 194.127 471.632 194.221L471.664 194.302L471.669 194.312C471.707 194.406 471.95 194.997 472.044 195.726C472.048 195.761 472.052 195.793 472.055 195.825L472.058 195.85L472.061 195.882C472.062 195.902 472.064 195.922 472.066 195.941L472.069 195.99L472.07 196.001C472.075 196.074 472.078 196.145 472.081 196.214C472.823 197.022 473.433 197.814 473.918 198.444L474.035 198.596C475.308 200.247 475.984 201.055 476.699 201.52C477.843 202.223 479.071 202.821 480.488 203.468C480.796 203.608 481.12 203.754 481.455 203.905C482.414 204.337 483.466 204.81 484.513 205.325L485.119 205.627C492.418 209.348 497.519 214.604 502.413 219.648C502.881 220.13 503.348 220.61 503.814 221.087C508.037 225.408 510.321 229.569 510.87 234.489C511.359 238.862 510.379 243.437 509.374 248.13L509.292 248.51C504.876 269.129 495.17 287.374 485.826 304.937L485.797 304.991L485.771 305.04L485.693 305.186L485.597 305.367L485.196 306.12ZM456.901 180.645C456.467 178.947 456.18 178.164 454.372 178.032C454.4 178.069 454.428 178.107 454.455 178.144L454.518 178.231L454.524 178.239L454.568 178.3L454.589 178.329L454.68 178.456L454.696 178.478L454.751 178.556C455.367 179.422 456.014 180.33 456.901 180.645ZM293.163 131.181C293.854 129.781 293.979 129.136 293.648 127.591C293.612 127.68 293.576 127.766 293.542 127.849C293.032 129.082 292.749 129.768 293.163 131.181ZM301.868 163.474L301.908 163.566L301.941 163.641L301.947 163.656L301.956 163.676L301.98 163.734L302.049 163.894L302.066 163.934C302.392 164.7 302.694 165.409 303.235 166.064L302.971 166.559C301.929 165.452 301.797 165.213 301.088 163.843L301.868 163.474ZM310.813 59.8923L310.848 59.8473C310.497 58.5626 310.447 57.8336 310.632 56.9982C310.425 57.8631 310.462 58.5902 310.813 59.8923ZM465.672 196.649L465.736 196.724L465.747 196.697L465.672 196.649ZM289.362 175.594C287.815 176.353 286.406 177.381 285.205 178.639C285.201 178.644 285.2 178.652 285.196 178.656C286.4 177.392 287.81 176.356 289.362 175.594Z" fill="#588B8B" fill-opacity="0.3"/>
</svg>
