<svg width="55" height="55" viewBox="0 0 55 55" fill="none" xmlns="http://www.w3.org/2000/svg">
<path d="M1.5 27.7957C1.5 31.2163 5.84971 34.7548 6.0935 34.034C6.33728 33.3263 4.15601 31.0197 4.14319 27.7957C4.15601 24.5717 6.33728 22.2651 6.0935 21.5575C5.86253 20.8497 1.5 24.3752 1.5 27.7957Z" fill="white"/>
<path d="M1.5 27.7957C1.5 31.2163 5.84971 34.7548 6.0935 34.034C6.33728 33.3263 4.15601 31.0197 4.14319 27.7957C4.15601 24.5717 6.33728 22.2651 6.0935 21.5575C5.86253 20.8497 1.5 24.3752 1.5 27.7957Z" fill="#588B8B" fill-opacity="0.3"/>
<path d="M5.2896 27.3499V27.3631C5.2896 29.6566 8.40754 31.5307 8.57433 31.0588C8.74114 30.5871 7.07311 29.5254 7.07311 27.3499C7.07311 25.1743 8.74114 24.126 8.57433 23.6411C8.40754 23.1692 5.2896 25.0433 5.2896 27.3368C5.2896 27.3499 5.2896 27.3499 5.2896 27.3499Z" fill="white"/>
<path d="M5.2896 27.3499V27.3631C5.2896 29.6566 8.40754 31.5307 8.57433 31.0588C8.74114 30.5871 7.07311 29.5254 7.07311 27.3499C7.07311 25.1743 8.74114 24.126 8.57433 23.6411C8.40754 23.1692 5.2896 25.0433 5.2896 27.3368C5.2896 27.3499 5.2896 27.3499 5.2896 27.3499Z" fill="#588B8B" fill-opacity="0.3"/>
<path d="M53.5 27.799C53.5 24.3784 49.1503 20.8399 48.9065 21.5606C48.6627 22.2684 50.8439 24.575 50.8567 27.799C50.8439 31.023 48.6627 33.3296 48.9065 34.0372C49.1503 34.7581 53.5 31.2326 53.5 27.799Z" fill="white"/>
<path d="M53.5 27.799C53.5 24.3784 49.1503 20.8399 48.9065 21.5606C48.6627 22.2684 50.8439 24.575 50.8567 27.799C50.8439 31.023 48.6627 33.3296 48.9065 34.0372C49.1503 34.7581 53.5 31.2326 53.5 27.799Z" fill="#588B8B" fill-opacity="0.3"/>
<path d="M49.3403 27.3502V27.3369C49.3403 25.0436 46.2224 23.1694 46.0555 23.6412C45.8887 24.1131 47.5568 25.1746 47.5568 27.3502C47.5568 29.5257 45.8887 30.5742 46.0555 31.059C46.2224 31.5308 49.3403 29.6567 49.3403 27.3632C49.3403 27.3632 49.3403 27.3632 49.3403 27.3502Z" fill="white"/>
<path d="M49.3403 27.3502V27.3369C49.3403 25.0436 46.2224 23.1694 46.0555 23.6412C45.8887 24.1131 47.5568 25.1746 47.5568 27.3502C47.5568 29.5257 45.8887 30.5742 46.0555 31.059C46.2224 31.5308 49.3403 29.6567 49.3403 27.3632C49.3403 27.3632 49.3403 27.3632 49.3403 27.3502Z" fill="#588B8B" fill-opacity="0.3"/>
<path d="M26.6537 1.5C23.3048 1.5 19.8405 5.94282 20.5462 6.19182C21.2389 6.44083 23.4973 4.21286 26.6537 4.19976C29.8102 4.21286 32.0684 6.44083 32.7613 6.19182C33.467 5.95592 30.0154 1.5 26.6537 1.5Z" fill="white"/>
<path d="M26.6537 1.5C23.3048 1.5 19.8405 5.94282 20.5462 6.19182C21.2389 6.44083 23.4973 4.21286 26.6537 4.19976C29.8102 4.21286 32.0684 6.44083 32.7613 6.19182C33.467 5.95592 30.0154 1.5 26.6537 1.5Z" fill="#588B8B" fill-opacity="0.3"/>
<path d="M27.0003 5.7038H26.9876C24.7421 5.7038 22.9072 8.88847 23.3692 9.05883C23.8311 9.22922 24.8703 7.52548 27.0003 7.52548C29.1303 7.52548 30.1568 9.22922 30.6315 9.05883C31.1063 8.88847 29.2586 5.7038 27.0131 5.7038C27.0131 5.7038 27.0131 5.7038 27.0003 5.7038Z" fill="white"/>
<path d="M27.0003 5.7038H26.9876C24.7421 5.7038 22.9072 8.88847 23.3692 9.05883C23.8311 9.22922 24.8703 7.52548 27.0003 7.52548C29.1303 7.52548 30.1568 9.22922 30.6315 9.05883C31.1063 8.88847 29.2586 5.7038 27.0131 5.7038C27.0131 5.7038 27.0131 5.7038 27.0003 5.7038Z" fill="#588B8B" fill-opacity="0.3"/>
<path d="M26.6538 53.5C30.0028 53.5 33.4671 49.0571 32.7614 48.8081C32.0685 48.5591 29.8102 50.7871 26.6538 50.8002C23.4974 50.7871 21.2391 48.5591 20.5462 48.8081C19.8535 49.0571 23.305 53.5 26.6538 53.5Z" fill="white"/>
<path d="M26.6538 53.5C30.0028 53.5 33.4671 49.0571 32.7614 48.8081C32.0685 48.5591 29.8102 50.7871 26.6538 50.8002C23.4974 50.7871 21.2391 48.5591 20.5462 48.8081C19.8535 49.0571 23.305 53.5 26.6538 53.5Z" fill="#588B8B" fill-opacity="0.3"/>
<path d="M27.0032 50.0542H27.0161C29.2616 50.0542 31.0964 46.8694 30.6345 46.6991C30.1726 46.5287 29.1332 48.2324 27.0032 48.2324C24.8734 48.2324 23.8469 46.5287 23.3721 46.6991C22.9102 46.8694 24.745 50.0542 26.9904 50.0542C27.0032 50.0542 27.0032 50.0542 27.0032 50.0542Z" fill="white"/>
<path d="M27.0032 50.0542H27.0161C29.2616 50.0542 31.0964 46.8694 30.6345 46.6991C30.1726 46.5287 29.1332 48.2324 27.0032 48.2324C24.8734 48.2324 23.8469 46.5287 23.3721 46.6991C22.9102 46.8694 24.745 50.0542 26.9904 50.0542C27.0032 50.0542 27.0032 50.0542 27.0032 50.0542Z" fill="#588B8B" fill-opacity="0.3"/>
<path d="M8.8649 9.52151C6.49116 11.9461 7.1327 17.5814 7.78709 17.2538C8.4543 16.9262 8.50562 13.7284 10.7382 11.4349C12.9836 9.15456 16.1144 9.10213 16.4352 8.42064C16.756 7.75225 11.2386 7.09697 8.8649 9.52151Z" fill="white"/>
<path d="M8.8649 9.52151C6.49116 11.9461 7.1327 17.5814 7.78709 17.2538C8.4543 16.9262 8.50562 13.7284 10.7382 11.4349C12.9836 9.15456 16.1144 9.10213 16.4352 8.42064C16.756 7.75225 11.2386 7.09697 8.8649 9.52151Z" fill="#588B8B" fill-opacity="0.3"/>
<path d="M11.8793 11.8826C10.2883 13.5077 11.1865 17.0986 11.6355 16.8758C12.0846 16.653 11.6355 14.7003 13.1368 13.1669C14.638 11.6336 16.5498 12.0922 16.7679 11.6336C16.9861 11.1748 13.4832 10.2574 11.8793 11.8826Z" fill="white"/>
<path d="M11.8793 11.8826C10.2883 13.5077 11.1865 17.0986 11.6355 16.8758C12.0846 16.653 11.6355 14.7003 13.1368 13.1669C14.638 11.6336 16.5498 12.0922 16.7679 11.6336C16.9861 11.1748 13.4832 10.2574 11.8793 11.8826Z" fill="#588B8B" fill-opacity="0.3"/>
<path d="M45.0937 46.026C47.4673 43.6014 46.8258 37.9659 46.1714 38.2935C45.5042 38.6213 45.4529 41.819 43.2203 44.1125C40.9748 46.3929 37.8441 46.4452 37.5234 47.1267C37.2026 47.7951 42.7199 48.4374 45.0937 46.026Z" fill="white"/>
<path d="M45.0937 46.026C47.4673 43.6014 46.8258 37.9659 46.1714 38.2935C45.5042 38.6213 45.4529 41.819 43.2203 44.1125C40.9748 46.3929 37.8441 46.4452 37.5234 47.1267C37.2026 47.7951 42.7199 48.4374 45.0937 46.026Z" fill="#588B8B" fill-opacity="0.3"/>
<path d="M42.4083 43.283C43.9993 41.6579 43.1011 38.067 42.6521 38.2898C42.203 38.5125 42.6521 40.4654 41.1508 41.9988C39.6496 43.532 37.7378 43.0734 37.5196 43.532C37.3015 43.9908 40.8044 44.9081 42.4083 43.283Z" fill="white"/>
<path d="M42.4083 43.283C43.9993 41.6579 43.1011 38.067 42.6521 38.2898C42.203 38.5125 42.6521 40.4654 41.1508 41.9988C39.6496 43.532 37.7378 43.0734 37.5196 43.532C37.3015 43.9908 40.8044 44.9081 42.4083 43.283Z" fill="#588B8B" fill-opacity="0.3"/>
<path d="M45.0937 9.52169C42.7199 7.09715 37.2026 7.75243 37.5234 8.42082C37.8441 9.10232 40.9748 9.15474 43.2203 11.4351C45.4529 13.7286 45.5042 16.9264 46.1714 17.254C46.8258 17.5817 47.4546 11.9462 45.0937 9.52169Z" fill="white"/>
<path d="M45.0937 9.52169C42.7199 7.09715 37.2026 7.75243 37.5234 8.42082C37.8441 9.10232 40.9748 9.15474 43.2203 11.4351C45.4529 13.7286 45.5042 16.9264 46.1714 17.254C46.8258 17.5817 47.4546 11.9462 45.0937 9.52169Z" fill="#588B8B" fill-opacity="0.3"/>
<path d="M42.4082 11.8826C40.8172 10.2574 37.3015 11.1748 37.5196 11.6336C37.7377 12.0922 39.6496 11.6336 41.1509 13.1669C42.652 14.7003 42.2029 16.653 42.652 16.8758C43.1011 17.0986 43.9994 13.5208 42.4082 11.8826Z" fill="white"/>
<path d="M42.4082 11.8826C40.8172 10.2574 37.3015 11.1748 37.5196 11.6336C37.7377 12.0922 39.6496 11.6336 41.1509 13.1669C42.652 14.7003 42.2029 16.653 42.652 16.8758C43.1011 17.0986 43.9994 13.5208 42.4082 11.8826Z" fill="#588B8B" fill-opacity="0.3"/>
<path d="M8.8649 46.0258C11.2386 48.4503 16.756 47.795 16.4352 47.1266C16.1144 46.4451 12.9836 46.3926 10.7382 44.1123C8.50562 41.8188 8.4543 38.621 7.78709 38.2934C7.1327 37.9658 6.49116 43.6012 8.8649 46.0258Z" fill="white"/>
<path d="M8.8649 46.0258C11.2386 48.4503 16.756 47.795 16.4352 47.1266C16.1144 46.4451 12.9836 46.3926 10.7382 44.1123C8.50562 41.8188 8.4543 38.621 7.78709 38.2934C7.1327 37.9658 6.49116 43.6012 8.8649 46.0258Z" fill="#588B8B" fill-opacity="0.3"/>
<path d="M11.8793 43.2829C13.4704 44.9079 16.9861 43.9907 16.7679 43.5319C16.5498 43.0732 14.638 43.5319 13.1368 41.9986C11.6355 40.4652 12.0846 38.5124 11.6355 38.2897C11.1865 38.0668 10.2883 41.6447 11.8793 43.2829Z" fill="white"/>
<path d="M11.8793 43.2829C13.4704 44.9079 16.9861 43.9907 16.7679 43.5319C16.5498 43.0732 14.638 43.5319 13.1368 41.9986C11.6355 40.4652 12.0846 38.5124 11.6355 38.2897C11.1865 38.0668 10.2883 41.6447 11.8793 43.2829Z" fill="#588B8B" fill-opacity="0.3"/>
<path d="M41.2132 28.579C40.7283 27.9512 40.7283 27.062 41.2132 26.4212L44.9263 21.5559C45.7428 20.4836 45.1049 18.9142 43.7906 18.7441L37.8065 17.9856C37.0282 17.894 36.4157 17.2663 36.3263 16.4685L35.5863 10.3347C35.4204 8.98767 33.8894 8.33375 32.8431 9.17076L28.0966 12.9766C27.4841 13.4736 26.6165 13.4736 25.9912 12.9766L21.2449 9.17076C20.1986 8.33375 18.6675 8.98767 18.5015 10.3347L17.7615 16.4685C17.6722 17.2663 17.0598 17.894 16.2814 17.9856L10.2973 18.7441C8.98305 18.9142 8.34508 20.4836 9.16168 21.5559L12.8747 26.4212C13.3595 27.0489 13.3595 27.9382 12.8747 28.579L9.16168 33.4442C8.34508 34.5166 8.98305 36.086 10.2973 36.256L16.2814 37.0145C17.0598 37.1062 17.6722 37.7339 17.7615 38.5317L18.5015 44.6655C18.6675 46.0124 20.1986 46.6664 21.2449 45.8295L25.9912 42.0236C26.6037 41.5266 27.4714 41.5266 28.0966 42.0236L32.8431 45.8295C33.8894 46.6664 35.4204 46.0124 35.5863 44.6655L36.3263 38.5317C36.4157 37.7339 37.0282 37.1062 37.8065 37.0145L43.7906 36.256C45.1049 36.086 45.7428 34.5166 44.9263 33.4442L41.2132 28.579ZM43.2548 34.2551C43.2548 34.3335 43.2165 34.4119 43.1654 34.4775C43.1527 34.4905 43.14 34.5036 43.14 34.5036C42.8081 34.8044 41.6471 34.7781 41.5577 34.7651C41.0474 34.7651 36.875 34.5166 35.982 34.4251C35.5863 34.3858 35.6884 34.3074 34.808 33.6273C34.0552 33.0519 33.3024 33.915 33.3024 33.915C33.3024 33.915 32.4603 34.6867 33.0217 35.4582C33.6852 36.3607 33.7618 36.2691 33.8 36.6615C33.8894 37.577 34.1318 41.8535 34.1318 42.3767C34.1318 42.4682 34.1573 43.6585 33.8766 43.9984C33.8766 43.9984 33.8638 44.0115 33.8511 44.0245C33.8 44.0769 33.7108 44.1162 33.6341 44.1162C33.6214 44.1162 33.5959 44.1162 33.5959 44.1162C33.1621 44.0899 32.3454 43.2137 32.2944 43.1615C31.9372 42.7953 29.1556 39.591 28.5815 38.8849C28.3262 38.571 28.4539 38.584 28.3008 37.4593C28.1732 36.5176 27.0375 36.5699 27.0375 36.5699C27.0375 36.5699 25.9147 36.5045 25.7744 37.4593C25.6213 38.584 25.7489 38.571 25.4937 38.8849C24.9195 39.6041 22.138 42.7953 21.7807 43.1615C21.7169 43.2269 20.9131 44.0899 20.4793 44.1162C20.4793 44.1162 20.4537 44.1162 20.441 44.1162C20.3644 44.1162 20.2878 44.0769 20.224 44.0245C20.2113 44.0115 20.1986 43.9984 20.1986 43.9984C19.9051 43.6585 19.9306 42.4682 19.9433 42.3767C19.9433 41.8535 20.1858 37.577 20.2751 36.6615C20.3134 36.256 20.3899 36.3607 21.0534 35.4582C21.6148 34.6867 20.7727 33.915 20.7727 33.915C20.7727 33.915 20.0198 33.0519 19.2671 33.6273C18.3868 34.3074 18.476 34.3858 18.0932 34.4251C17.2001 34.5166 13.0278 34.7651 12.5174 34.7651C12.4281 34.7651 11.267 34.7913 10.9352 34.5036C10.9352 34.5036 10.9225 34.4905 10.9097 34.4775C10.8587 34.4251 10.8204 34.3335 10.8204 34.2551C10.8204 34.242 10.8204 34.2158 10.8204 34.2158C10.8459 33.7711 11.7008 32.9342 11.7518 32.8819C12.1091 32.5157 15.2351 29.6646 15.9242 29.076C16.2304 28.8144 16.2177 28.9452 17.3149 28.7883C18.2336 28.6576 18.1826 27.4936 18.1826 27.4936C18.1826 27.4936 18.2464 26.3426 17.3149 26.1988C16.2177 26.0419 16.2304 26.1727 15.9242 25.911C15.2224 25.3225 12.1091 22.4715 11.7518 22.1052C11.688 22.0399 10.8459 21.216 10.8204 20.7713C10.8204 20.7713 10.8204 20.7451 10.8204 20.732C10.8204 20.6536 10.8587 20.575 10.9097 20.5096C10.9225 20.4966 10.9352 20.4836 10.9352 20.4836C11.267 20.1827 12.4281 20.209 12.5174 20.222C13.0278 20.222 17.2001 20.4705 18.0932 20.562C18.4888 20.6013 18.3868 20.6797 19.2671 21.3598C20.0198 21.9352 20.7727 21.072 20.7727 21.072C20.7727 21.072 21.6148 20.3004 21.0534 19.5289C20.3899 18.6264 20.3134 18.718 20.2751 18.3256C20.1858 17.4101 19.9433 13.1335 19.9433 12.6104C19.9433 12.5188 19.9179 11.3287 20.1986 10.9887C20.1986 10.9887 20.2113 10.9756 20.224 10.9625C20.2751 10.9102 20.3644 10.8709 20.441 10.8709C20.4537 10.8709 20.4793 10.8709 20.4793 10.8709C20.9131 10.8971 21.7296 11.7734 21.7807 11.8257C22.138 12.1919 24.9195 15.3961 25.4937 16.1022C25.7489 16.4161 25.6213 16.4031 25.7744 17.5278C25.902 18.4696 27.0375 18.4172 27.0375 18.4172C27.0375 18.4172 28.1605 18.4826 28.3008 17.5278C28.4539 16.4031 28.3262 16.4161 28.5815 16.1022C29.1556 15.383 31.9372 12.1919 32.2944 11.8257C32.3583 11.7603 33.1621 10.8971 33.5959 10.8709C33.5959 10.8709 33.6214 10.8709 33.6341 10.8709C33.7108 10.8709 33.7873 10.9102 33.8511 10.9625C33.8638 10.9756 33.8766 10.9887 33.8766 10.9887C34.1701 11.3287 34.1445 12.5188 34.1318 12.6104C34.1318 13.1335 33.8894 17.4101 33.8 18.3256C33.7618 18.7311 33.6852 18.6264 33.0217 19.5289C32.4603 20.3004 33.3024 21.072 33.3024 21.072C33.3024 21.072 34.0552 21.9352 34.808 21.3598C35.6884 20.6797 35.5992 20.6013 35.982 20.562C36.875 20.4705 41.0474 20.222 41.5577 20.222C41.6471 20.222 42.8081 20.1958 43.14 20.4836C43.14 20.4836 43.1527 20.4966 43.1654 20.5096C43.2165 20.562 43.2548 20.6536 43.2548 20.732C43.2548 20.7451 43.2548 20.7713 43.2548 20.7713C43.2292 21.216 42.3744 22.0529 42.3233 22.1052C41.966 22.4715 38.8399 25.3225 38.151 25.911C37.8448 26.1727 37.8575 26.0419 36.7602 26.1988C35.8416 26.3295 35.8926 27.4936 35.8926 27.4936C35.8926 27.4936 35.8288 28.6445 36.7602 28.7883C37.8575 28.9452 37.8448 28.8144 38.151 29.076C38.8528 29.6646 41.966 32.5157 42.3233 32.8819C42.3871 32.9472 43.2292 33.7711 43.2548 34.2158C43.2548 34.2158 43.2548 34.242 43.2548 34.2551Z" fill="#588B8B"/>
</svg>
