<svg width="40" height="40" viewBox="0 0 40 40" fill="none" xmlns="http://www.w3.org/2000/svg">
<path d="M20.6478 30.1136C29.5604 30.1136 38.7797 18.3769 36.9017 17.7191C35.0581 17.0613 29.048 22.947 20.6478 22.9816C12.2477 22.947 6.23798 17.0613 4.39395 17.7191C2.51592 18.3423 11.7017 30.1136 20.6478 30.1136Z" fill="white"/>
<path d="M20.6478 30.1136C29.5604 30.1136 38.7797 18.3769 36.9017 17.7191C35.0581 17.0613 29.048 22.947 20.6478 22.9816C12.2477 22.947 6.23798 17.0613 4.39395 17.7191C2.51592 18.3423 11.7017 30.1136 20.6478 30.1136Z" fill="#588B8B" fill-opacity="0.3"/>
<path d="M19.7254 19.0084L19.7594 19.0084C25.7351 19.0084 30.6184 10.5954 29.3888 10.1453C28.1596 9.69519 25.3939 14.196 19.7254 14.196C14.0569 14.196 11.3253 9.69519 10.0621 10.1453C8.79843 10.5954 13.7157 19.0084 19.6914 19.0084C19.6914 19.0084 19.6914 19.0084 19.7254 19.0084Z" fill="white"/>
<path d="M19.7254 19.0084L19.7594 19.0084C25.7351 19.0084 30.6184 10.5954 29.3888 10.1453C28.1596 9.69519 25.3939 14.196 19.7254 14.196C14.0569 14.196 11.3253 9.69519 10.0621 10.1453C8.79843 10.5954 13.7157 19.0084 19.6914 19.0084C19.6914 19.0084 19.6914 19.0084 19.7254 19.0084Z" fill="#588B8B" fill-opacity="0.3"/>
</svg>
