<svg width="18" height="18" viewBox="0 0 18 18" fill="none" xmlns="http://www.w3.org/2000/svg">
<path d="M3.26495 16.3974C2.80503 16.1227 2.88269 15.968 2.8786 15.4677C2.874 14.9063 2.87893 14.3421 2.88547 13.7807C2.90224 12.9504 3.14973 12.0871 3.59163 11.3821C4.27552 10.2787 5.3733 9.49569 6.63917 9.20831C7.26432 9.06605 8.28887 9.10438 8.95992 9.10421C9.73124 9.12262 10.5479 9.04946 11.3082 9.19791C11.8551 9.31536 12.4056 9.54126 12.8783 9.83597C14.1308 10.6159 15.0014 12.0228 15.099 13.4996C15.1509 14.2858 15.1098 15.1071 15.1144 15.8961C15.116 16.1505 14.9335 16.2835 14.7361 16.3974H3.26495Z" fill="black"/>
<path d="M3.26495 16.3974C2.80503 16.1227 2.88269 15.968 2.8786 15.4677C2.874 14.9063 2.87893 14.3421 2.88547 13.7807C2.90224 12.9504 3.14973 12.0871 3.59163 11.3821C4.27552 10.2787 5.3733 9.49569 6.63917 9.20831C7.26432 9.06605 8.28887 9.10438 8.95992 9.10421C9.73124 9.12262 10.5479 9.04946 11.3082 9.19791C11.8551 9.31536 12.4056 9.54126 12.8783 9.83597C14.1308 10.6159 15.0014 12.0228 15.099 13.4996C15.1509 14.2858 15.1098 15.1071 15.1144 15.8961C15.116 16.1505 14.9335 16.2835 14.7361 16.3974H3.26495Z" fill="white"/>
<path d="M3.26495 16.3974C2.80503 16.1227 2.88269 15.968 2.8786 15.4677C2.874 14.9063 2.87893 14.3421 2.88547 13.7807C2.90224 12.9504 3.14973 12.0871 3.59163 11.3821C4.27552 10.2787 5.3733 9.49569 6.63917 9.20831C7.26432 9.06605 8.28887 9.10438 8.95992 9.10421C9.73124 9.12262 10.5479 9.04946 11.3082 9.19791C11.8551 9.31536 12.4056 9.54126 12.8783 9.83597C14.1308 10.6159 15.0014 12.0228 15.099 13.4996C15.1509 14.2858 15.1098 15.1071 15.1144 15.8961C15.116 16.1505 14.9335 16.2835 14.7361 16.3974H3.26495Z" fill="#588B8B" fill-opacity="0.3"/>
<path d="M12.2158 5.07349C12.2158 6.84954 10.776 8.28931 9 8.28931C7.22395 8.28931 5.78418 6.84954 5.78418 5.07349C5.78418 3.29744 7.22395 1.85767 9 1.85767C10.776 1.85767 12.2158 3.29744 12.2158 5.07349Z" fill="black"/>
<path d="M12.2158 5.07349C12.2158 6.84954 10.776 8.28931 9 8.28931C7.22395 8.28931 5.78418 6.84954 5.78418 5.07349C5.78418 3.29744 7.22395 1.85767 9 1.85767C10.776 1.85767 12.2158 3.29744 12.2158 5.07349Z" fill="white"/>
<path d="M12.2158 5.07349C12.2158 6.84954 10.776 8.28931 9 8.28931C7.22395 8.28931 5.78418 6.84954 5.78418 5.07349C5.78418 3.29744 7.22395 1.85767 9 1.85767C10.776 1.85767 12.2158 3.29744 12.2158 5.07349Z" fill="#588B8B" fill-opacity="0.3"/>
</svg>
