<svg width="32" height="32" viewBox="0 0 32 32" fill="none" xmlns="http://www.w3.org/2000/svg">
<path d="M0.872559 16.1721C0.872559 18.1622 3.4033 20.221 3.54514 19.8016C3.68697 19.3899 2.41787 18.0479 2.41041 16.1721C2.41787 14.2963 3.68697 12.9543 3.54514 12.5426C3.41076 12.1308 0.872559 14.1819 0.872559 16.1721Z" fill="white"/>
<path d="M0.872559 16.1721C0.872559 18.1622 3.4033 20.221 3.54514 19.8016C3.68697 19.3899 2.41787 18.0479 2.41041 16.1721C2.41787 14.2963 3.68697 12.9543 3.54514 12.5426C3.41076 12.1308 0.872559 14.1819 0.872559 16.1721Z" fill="#588B8B" fill-opacity="0.3"/>
<path d="M3.07742 15.9127V15.9204C3.07742 17.2548 4.89149 18.3451 4.98853 18.0706C5.08559 17.7961 4.1151 17.1784 4.1151 15.9127C4.1151 14.6469 5.08559 14.037 4.98853 13.7548C4.89149 13.4803 3.07742 14.5707 3.07742 15.9051C3.07742 15.9127 3.07742 15.9127 3.07742 15.9127Z" fill="white"/>
<path d="M3.07742 15.9127V15.9204C3.07742 17.2548 4.89149 18.3451 4.98853 18.0706C5.08559 17.7961 4.1151 17.1784 4.1151 15.9127C4.1151 14.6469 5.08559 14.037 4.98853 13.7548C4.89149 13.4803 3.07742 14.5707 3.07742 15.9051C3.07742 15.9127 3.07742 15.9127 3.07742 15.9127Z" fill="#588B8B" fill-opacity="0.3"/>
<path d="M31.1271 16.174C31.1271 14.1838 28.5964 12.125 28.4545 12.5444C28.3127 12.9562 29.5818 14.2982 29.5892 16.174C29.5818 18.0498 28.3127 19.3918 28.4545 19.8035C28.5964 20.2229 31.1271 18.1717 31.1271 16.174Z" fill="white"/>
<path d="M31.1271 16.174C31.1271 14.1838 28.5964 12.125 28.4545 12.5444C28.3127 12.9562 29.5818 14.2982 29.5892 16.174C29.5818 18.0498 28.3127 19.3918 28.4545 19.8035C28.5964 20.2229 31.1271 18.1717 31.1271 16.174Z" fill="#588B8B" fill-opacity="0.3"/>
<path d="M28.7069 15.9128V15.9051C28.7069 14.5708 26.8929 13.4804 26.7958 13.7549C26.6987 14.0294 27.6692 14.6471 27.6692 15.9128C27.6692 17.1786 26.6987 17.7886 26.7958 18.0707C26.8929 18.3452 28.7069 17.2549 28.7069 15.9204C28.7069 15.9204 28.7069 15.9204 28.7069 15.9128Z" fill="white"/>
<path d="M28.7069 15.9128V15.9051C28.7069 14.5708 26.8929 13.4804 26.7958 13.7549C26.6987 14.0294 27.6692 14.6471 27.6692 15.9128C27.6692 17.1786 26.6987 17.7886 26.7958 18.0707C26.8929 18.3452 28.7069 17.2549 28.7069 15.9204C28.7069 15.9204 28.7069 15.9204 28.7069 15.9128Z" fill="#588B8B" fill-opacity="0.3"/>
<path d="M15.5075 0.872742C13.559 0.872742 11.5434 3.45765 11.954 3.60253C12.357 3.74741 13.671 2.45113 15.5075 2.44351C17.3439 2.45113 18.6578 3.74741 19.061 3.60253C19.4715 3.46528 17.4633 0.872742 15.5075 0.872742Z" fill="white"/>
<path d="M15.5075 0.872742C13.559 0.872742 11.5434 3.45765 11.954 3.60253C12.357 3.74741 13.671 2.45113 15.5075 2.44351C17.3439 2.45113 18.6578 3.74741 19.061 3.60253C19.4715 3.46528 17.4633 0.872742 15.5075 0.872742Z" fill="#588B8B" fill-opacity="0.3"/>
<path d="M15.7091 3.31859H15.7017C14.3953 3.31859 13.3277 5.17149 13.5965 5.27061C13.8652 5.36974 14.4699 4.37848 15.7091 4.37848C16.9484 4.37848 17.5456 5.36974 17.8218 5.27061C18.098 5.17149 17.023 3.31859 15.7166 3.31859C15.7166 3.31859 15.7166 3.31859 15.7091 3.31859Z" fill="white"/>
<path d="M15.7091 3.31859H15.7017C14.3953 3.31859 13.3277 5.17149 13.5965 5.27061C13.8652 5.36974 14.4699 4.37848 15.7091 4.37848C16.9484 4.37848 17.5456 5.36974 17.8218 5.27061C18.098 5.17149 17.023 3.31859 15.7166 3.31859C15.7166 3.31859 15.7166 3.31859 15.7091 3.31859Z" fill="#588B8B" fill-opacity="0.3"/>
<path d="M15.5075 31.1273C17.456 31.1273 19.4716 28.5423 19.061 28.3975C18.6578 28.2526 17.344 29.5489 15.5075 29.5565C13.671 29.5489 12.3572 28.2526 11.954 28.3975C11.5509 28.5423 13.5591 31.1273 15.5075 31.1273Z" fill="white"/>
<path d="M15.5075 31.1273C17.456 31.1273 19.4716 28.5423 19.061 28.3975C18.6578 28.2526 17.344 29.5489 15.5075 29.5565C13.671 29.5489 12.3572 28.2526 11.954 28.3975C11.5509 28.5423 13.5591 31.1273 15.5075 31.1273Z" fill="#588B8B" fill-opacity="0.3"/>
<path d="M15.7108 29.1224H15.7183C17.0247 29.1224 18.0923 27.2695 17.8235 27.1704C17.5548 27.0713 16.9501 28.0625 15.7108 28.0625C14.4716 28.0625 13.8744 27.0713 13.5981 27.1704C13.3294 27.2695 14.3969 29.1224 15.7034 29.1224C15.7108 29.1224 15.7108 29.1224 15.7108 29.1224Z" fill="white"/>
<path d="M15.7108 29.1224H15.7183C17.0247 29.1224 18.0923 27.2695 17.8235 27.1704C17.5548 27.0713 16.9501 28.0625 15.7108 28.0625C14.4716 28.0625 13.8744 27.0713 13.5981 27.1704C13.3294 27.2695 14.3969 29.1224 15.7034 29.1224C15.7108 29.1224 15.7108 29.1224 15.7108 29.1224Z" fill="#588B8B" fill-opacity="0.3"/>
<path d="M5.15759 5.5398C3.77651 6.95045 4.14977 10.2292 4.5305 10.0386C4.9187 9.848 4.94855 7.98746 6.24752 6.65307C7.55394 5.3263 9.37548 5.2958 9.56215 4.8993C9.74877 4.51041 6.53866 4.12916 5.15759 5.5398Z" fill="white"/>
<path d="M5.15759 5.5398C3.77651 6.95045 4.14977 10.2292 4.5305 10.0386C4.9187 9.848 4.94855 7.98746 6.24752 6.65307C7.55394 5.3263 9.37548 5.2958 9.56215 4.8993C9.74877 4.51041 6.53866 4.12916 5.15759 5.5398Z" fill="#588B8B" fill-opacity="0.3"/>
<path d="M6.91144 6.9135C5.98574 7.85901 6.50832 9.94827 6.7696 9.81869C7.03089 9.68903 6.7696 8.5529 7.64304 7.66076C8.51648 6.76863 9.62879 7.0355 9.75569 6.76863C9.88266 6.50175 7.84461 5.96798 6.91144 6.9135Z" fill="white"/>
<path d="M6.91144 6.9135C5.98574 7.85901 6.50832 9.94827 6.7696 9.81869C7.03089 9.68903 6.7696 8.5529 7.64304 7.66076C8.51648 6.76863 9.62879 7.0355 9.75569 6.76863C9.88266 6.50175 7.84461 5.96798 6.91144 6.9135Z" fill="#588B8B" fill-opacity="0.3"/>
<path d="M26.2362 26.7788C27.6172 25.3681 27.244 22.0893 26.8632 22.2799C26.475 22.4706 26.4452 24.3311 25.1462 25.6655C23.8397 26.9923 22.0182 27.0227 21.8316 27.4192C21.645 27.8081 24.8551 28.1818 26.2362 26.7788Z" fill="white"/>
<path d="M26.2362 26.7788C27.6172 25.3681 27.244 22.0893 26.8632 22.2799C26.475 22.4706 26.4452 24.3311 25.1462 25.6655C23.8397 26.9923 22.0182 27.0227 21.8316 27.4192C21.645 27.8081 24.8551 28.1818 26.2362 26.7788Z" fill="#588B8B" fill-opacity="0.3"/>
<path d="M24.6738 25.1829C25.5994 24.2374 25.0768 22.1481 24.8156 22.2777C24.5543 22.4073 24.8156 23.5435 23.9421 24.4357C23.0687 25.3277 21.9564 25.0609 21.8294 25.3277C21.7025 25.5947 23.7406 26.1284 24.6738 25.1829Z" fill="white"/>
<path d="M24.6738 25.1829C25.5994 24.2374 25.0768 22.1481 24.8156 22.2777C24.5543 22.4073 24.8156 23.5435 23.9421 24.4357C23.0687 25.3277 21.9564 25.0609 21.8294 25.3277C21.7025 25.5947 23.7406 26.1284 24.6738 25.1829Z" fill="#588B8B" fill-opacity="0.3"/>
<path d="M26.2362 5.53991C24.8551 4.12927 21.645 4.51052 21.8316 4.8994C22.0182 5.29591 23.8397 5.32641 25.1462 6.65318C26.4452 7.98757 26.475 9.84808 26.8632 10.0387C27.244 10.2294 27.6098 6.95055 26.2362 5.53991Z" fill="white"/>
<path d="M26.2362 5.53991C24.8551 4.12927 21.645 4.51052 21.8316 4.8994C22.0182 5.29591 23.8397 5.32641 25.1462 6.65318C26.4452 7.98757 26.475 9.84808 26.8632 10.0387C27.244 10.2294 27.6098 6.95055 26.2362 5.53991Z" fill="#588B8B" fill-opacity="0.3"/>
<path d="M24.6737 6.9135C23.748 5.96798 21.7026 6.50175 21.8294 6.76863C21.9563 7.0355 23.0687 6.76863 23.9422 7.66076C24.8156 8.5529 24.5542 9.68903 24.8156 9.81869C25.0769 9.94827 25.5995 7.86664 24.6737 6.9135Z" fill="white"/>
<path d="M24.6737 6.9135C23.748 5.96798 21.7026 6.50175 21.8294 6.76863C21.9563 7.0355 23.0687 6.76863 23.9422 7.66076C24.8156 8.5529 24.5542 9.68903 24.8156 9.81869C25.0769 9.94827 25.5995 7.86664 24.6737 6.9135Z" fill="#588B8B" fill-opacity="0.3"/>
<path d="M5.15759 26.7787C6.53866 28.1893 9.74877 27.808 9.56215 27.4191C9.37548 27.0226 7.55394 26.9921 6.24752 25.6654C4.94855 24.331 4.9187 22.4704 4.5305 22.2798C4.14977 22.0892 3.77651 25.368 5.15759 26.7787Z" fill="white"/>
<path d="M5.15759 26.7787C6.53866 28.1893 9.74877 27.808 9.56215 27.4191C9.37548 27.0226 7.55394 26.9921 6.24752 25.6654C4.94855 24.331 4.9187 22.4704 4.5305 22.2798C4.14977 22.0892 3.77651 25.368 5.15759 26.7787Z" fill="#588B8B" fill-opacity="0.3"/>
<path d="M6.91144 25.1828C7.83714 26.1283 9.88266 25.5946 9.75569 25.3276C9.62879 25.0608 8.51648 25.3276 7.64304 24.4356C6.7696 23.5434 7.03089 22.4072 6.7696 22.2776C6.50832 22.148 5.98574 24.2297 6.91144 25.1828Z" fill="white"/>
<path d="M6.91144 25.1828C7.83714 26.1283 9.88266 25.5946 9.75569 25.3276C9.62879 25.0608 8.51648 25.3276 7.64304 24.4356C6.7696 23.5434 7.03089 22.4072 6.7696 22.2776C6.50832 22.148 5.98574 24.2297 6.91144 25.1828Z" fill="#588B8B" fill-opacity="0.3"/>
<path d="M23.9787 16.6277C23.6966 16.2625 23.6966 15.7451 23.9787 15.3722L26.139 12.5416C26.6141 11.9176 26.2429 11.0045 25.4783 10.9056L21.9966 10.4643C21.5438 10.411 21.1874 10.0457 21.1354 9.58157L20.7049 6.01286C20.6083 5.22911 19.7176 4.84865 19.1088 5.33564L16.3472 7.54993C15.9909 7.83908 15.486 7.83908 15.1223 7.54993L12.3608 5.33564C11.752 4.84865 10.8612 5.22911 10.7646 6.01286L10.3341 9.58157C10.2821 10.0457 9.9258 10.411 9.47289 10.4643L5.99124 10.9056C5.22661 11.0045 4.85542 11.9176 5.33054 12.5416L7.49081 15.3722C7.77291 15.7375 7.77291 16.2549 7.49081 16.6277L5.33054 19.4584C4.85542 20.0823 5.22661 20.9954 5.99124 21.0943L9.47289 21.5357C9.9258 21.589 10.2821 21.9542 10.3341 22.4184L10.7646 25.9871C10.8612 26.7708 11.752 27.1513 12.3608 26.6644L15.1223 24.45C15.4787 24.1609 15.9835 24.1609 16.3472 24.45L19.1088 26.6644C19.7176 27.1513 20.6083 26.7708 20.7049 25.9871L21.1354 22.4184C21.1874 21.9542 21.5438 21.589 21.9966 21.5357L25.4783 21.0943C26.2429 20.9954 26.6141 20.0823 26.139 19.4584L23.9787 16.6277ZM25.1665 19.9301C25.1665 19.9758 25.1442 20.0214 25.1145 20.0595C25.1071 20.0671 25.0997 20.0747 25.0997 20.0747C24.9067 20.2497 24.2311 20.2345 24.1791 20.2269C23.8822 20.2269 21.4547 20.0823 20.9351 20.0291C20.7049 20.0062 20.7643 19.9606 20.2521 19.5649C19.814 19.2301 19.3761 19.7323 19.3761 19.7323C19.3761 19.7323 18.8861 20.1813 19.2128 20.6302C19.5988 21.1552 19.6433 21.1019 19.6656 21.3303C19.7176 21.8629 19.8586 24.3511 19.8586 24.6555C19.8586 24.7087 19.8734 25.4012 19.7101 25.599C19.7101 25.599 19.7027 25.6066 19.6953 25.6142C19.6656 25.6447 19.6137 25.6675 19.569 25.6675C19.5617 25.6675 19.5468 25.6675 19.5468 25.6675C19.2944 25.6522 18.8193 25.1424 18.7896 25.1121C18.5818 24.899 16.9634 23.0347 16.6293 22.6238C16.4808 22.4412 16.5551 22.4488 16.466 21.7944C16.3918 21.2465 15.731 21.277 15.731 21.277C15.731 21.277 15.0778 21.2389 14.9961 21.7944C14.907 22.4488 14.9813 22.4412 14.8328 22.6238C14.4988 23.0423 12.8804 24.899 12.6725 25.1121C12.6354 25.1501 12.1677 25.6522 11.9153 25.6675C11.9153 25.6675 11.9005 25.6675 11.8931 25.6675C11.8485 25.6675 11.8039 25.6447 11.7668 25.6142C11.7594 25.6066 11.752 25.599 11.752 25.599C11.5812 25.4012 11.5961 24.7087 11.6035 24.6555C11.6035 24.3511 11.7445 21.8629 11.7965 21.3303C11.8188 21.0943 11.8633 21.1552 12.2494 20.6302C12.576 20.1813 12.086 19.7323 12.086 19.7323C12.086 19.7323 11.648 19.2301 11.2101 19.5649C10.6979 19.9606 10.7498 20.0062 10.5271 20.0291C10.0075 20.0823 7.5799 20.2269 7.28296 20.2269C7.231 20.2269 6.55544 20.2422 6.36243 20.0747C6.36243 20.0747 6.355 20.0671 6.34758 20.0595C6.31788 20.0291 6.29561 19.9758 6.29561 19.9301C6.29561 19.9226 6.29561 19.9073 6.29561 19.9073C6.31046 19.6486 6.80784 19.1616 6.83754 19.1312C7.0454 18.9181 8.86419 17.2593 9.26507 16.9168C9.44324 16.7647 9.43585 16.8408 10.0742 16.7495C10.6087 16.6734 10.5791 15.9962 10.5791 15.9962C10.5791 15.9962 10.6162 15.3265 10.0742 15.2428C9.43585 15.1516 9.44324 15.2277 9.26507 15.0754C8.85677 14.733 7.0454 13.0742 6.83754 12.8612C6.80042 12.8231 6.31046 12.3438 6.29561 12.0851C6.29561 12.0851 6.29561 12.0698 6.29561 12.0622C6.29561 12.0166 6.31788 11.9708 6.34758 11.9328C6.355 11.9252 6.36243 11.9176 6.36243 11.9176C6.55544 11.7426 7.231 11.7579 7.28296 11.7655C7.5799 11.7655 10.0075 11.91 10.5271 11.9633C10.7573 11.9861 10.6979 12.0318 11.2101 12.4274C11.648 12.7622 12.086 12.26 12.086 12.26C12.086 12.26 12.576 11.8111 12.2494 11.3622C11.8633 10.8371 11.8188 10.8904 11.7965 10.6621C11.7445 10.1294 11.6035 7.64124 11.6035 7.33687C11.6035 7.28361 11.5887 6.59116 11.752 6.39332C11.752 6.39332 11.7594 6.38571 11.7668 6.37811C11.7965 6.34767 11.8485 6.32484 11.8931 6.32484C11.9005 6.32484 11.9153 6.32484 11.9153 6.32484C12.1677 6.34006 12.6428 6.84988 12.6725 6.88031C12.8804 7.09337 14.4988 8.95764 14.8328 9.3685C14.9813 9.55112 14.907 9.54353 14.9961 10.1979C15.0704 10.7458 15.731 10.7154 15.731 10.7154C15.731 10.7154 16.3844 10.7534 16.466 10.1979C16.5551 9.54353 16.4808 9.55112 16.6293 9.3685C16.9634 8.95003 18.5818 7.09337 18.7896 6.88031C18.8267 6.84227 19.2944 6.34006 19.5468 6.32484C19.5468 6.32484 19.5617 6.32484 19.569 6.32484C19.6137 6.32484 19.6582 6.34767 19.6953 6.37811C19.7027 6.38571 19.7101 6.39332 19.7101 6.39332C19.8809 6.59116 19.866 7.28361 19.8586 7.33687C19.8586 7.64124 19.7176 10.1294 19.6656 10.6621C19.6433 10.898 19.5988 10.8371 19.2128 11.3622C18.8861 11.8111 19.3761 12.26 19.3761 12.26C19.3761 12.26 19.814 12.7622 20.2521 12.4274C20.7643 12.0318 20.7123 11.9861 20.9351 11.9633C21.4547 11.91 23.8822 11.7655 24.1791 11.7655C24.2311 11.7655 24.9067 11.7502 25.0997 11.9176C25.0997 11.9176 25.1071 11.9252 25.1145 11.9328C25.1442 11.9633 25.1665 12.0166 25.1665 12.0622C25.1665 12.0698 25.1665 12.0851 25.1665 12.0851C25.1516 12.3438 24.6543 12.8307 24.6246 12.8612C24.4167 13.0742 22.5979 14.733 22.1971 15.0754C22.0189 15.2277 22.0263 15.1516 21.3879 15.2428C20.8534 15.3189 20.8831 15.9962 20.8831 15.9962C20.8831 15.9962 20.8459 16.6658 21.3879 16.7495C22.0263 16.8408 22.0189 16.7647 22.1971 16.9168C22.6054 17.2593 24.4167 18.9181 24.6246 19.1312C24.6617 19.1692 25.1516 19.6486 25.1665 19.9073C25.1665 19.9073 25.1665 19.9226 25.1665 19.9301Z" fill="#588B8B"/>
</svg>
