<svg width="27" height="35" viewBox="0 0 27 35" fill="none" xmlns="http://www.w3.org/2000/svg">
<path d="M26.1848 24.1025C26.0444 26.7718 25.5764 29.7358 23.8451 31.891C22.0962 34.0692 19.2243 34.7798 16.5103 34.5487C12.527 34.2078 9.44454 31.3421 7.31546 28.2221C5.16298 25.0732 2.99295 21.9358 0.834617 18.7927C0.524613 18.3421 0.121023 17.8683 0.0274368 17.3252C-0.270869 15.5803 1.93425 14.4363 3.19767 15.7132C3.70069 16.2216 4.07504 16.8918 4.49033 17.4638C5.12203 18.3421 5.75374 19.2261 6.38544 20.1043C6.50243 20.2661 6.61941 20.4336 6.73639 20.5954C6.97621 21.0114 7.64301 21.023 7.91207 20.6416C8.04075 20.4972 8.09339 20.3065 8.02905 20.1043V6.79807C8.02905 5.16296 7.95886 3.50474 8.02905 1.86963C8.06999 0.939404 8.73095 0.107404 9.70775 0.00918203C10.8308 -0.100596 11.7257 0.789182 11.7666 1.86385C11.7959 2.6034 11.7666 3.34874 11.7666 4.08252V11.7207C11.7666 12.0154 11.9246 12.2061 12.1293 12.3043C12.2287 12.3621 12.3399 12.4025 12.4568 12.4025C12.5738 12.4025 12.6908 12.3621 12.7902 12.3043C12.995 12.2061 13.147 12.0154 13.147 11.7207C13.147 11.6398 13.147 11.5647 13.1587 11.4838C13.1587 11.4607 13.1704 11.4145 13.1704 11.403C13.1821 11.3625 13.188 11.3163 13.1997 11.2758C13.2231 11.195 13.2523 11.1083 13.2816 11.0274C13.2816 11.0274 13.2816 11.0274 13.2874 11.0158C13.3108 10.9696 13.3342 10.9176 13.3635 10.8714C13.4103 10.7905 13.4629 10.7096 13.5214 10.6287C13.5214 10.6287 13.5214 10.6287 13.5331 10.6172C13.5623 10.5883 13.5916 10.5536 13.6208 10.5247C13.6793 10.4612 13.7437 10.4034 13.808 10.3514C13.8197 10.3398 13.8548 10.3167 13.8723 10.2994C13.9074 10.2763 13.9425 10.2532 13.9776 10.2301C14.0537 10.1838 14.1297 10.1492 14.2057 10.1087C14.2174 10.103 14.2116 10.1087 14.2174 10.103C14.2584 10.0856 14.2993 10.0741 14.3403 10.0625C14.4339 10.0336 14.5274 10.0105 14.6269 9.9874C14.6327 9.9874 14.6561 9.9874 14.6737 9.98163C14.7205 9.98163 14.7614 9.97585 14.8082 9.97007C14.9018 9.97007 14.9895 9.97007 15.0831 9.97007C15.1065 9.97007 15.165 9.98163 15.1767 9.98163C15.2059 9.98163 15.2352 9.99318 15.2644 9.99896C15.3522 10.0163 15.4341 10.0394 15.5159 10.0683C15.5452 10.0798 15.5744 10.0914 15.6037 10.103C15.6154 10.1087 15.6914 10.1434 15.709 10.155C15.785 10.1954 15.8552 10.2416 15.9312 10.2878C15.9371 10.2878 15.9605 10.3052 15.978 10.3167C16.0014 10.3341 16.0248 10.3572 16.0482 10.3745C16.1126 10.4323 16.171 10.4901 16.2295 10.5536C16.2588 10.5825 16.288 10.6172 16.3114 10.6518C16.2295 10.5536 16.3524 10.7096 16.3582 10.7154C16.405 10.7847 16.4518 10.8598 16.4927 10.935C16.5103 10.9696 16.5337 11.0101 16.5512 11.0505C16.5512 11.0563 16.5512 11.0563 16.5571 11.0678C16.5863 11.1487 16.6156 11.2296 16.6331 11.3163C16.6448 11.3567 16.6507 11.403 16.6624 11.4434C16.6624 11.4607 16.6682 11.4723 16.6741 11.4838C16.6741 11.4954 16.6741 11.507 16.6741 11.5243C16.6916 11.8998 16.6799 12.2812 16.6799 12.6567V13.9683C16.6799 14.1878 16.7969 14.3785 16.9724 14.5056C17.0894 14.5923 17.2239 14.6501 17.3701 14.6501C17.5339 14.6501 17.6743 14.5865 17.7913 14.4883C17.9492 14.3612 18.0603 14.1763 18.0603 13.9683C18.0603 13.8874 18.0603 13.8123 18.072 13.7314C18.072 13.7083 18.0837 13.6621 18.0837 13.6505C18.0954 13.6101 18.1013 13.5638 18.113 13.5234C18.1364 13.4425 18.1656 13.3558 18.1948 13.275C18.1948 13.275 18.1948 13.275 18.2007 13.2634C18.2241 13.2172 18.2475 13.1652 18.2767 13.119C18.3235 13.0381 18.3762 12.9572 18.4347 12.8763C18.4347 12.8763 18.4347 12.8763 18.4464 12.8647C18.4756 12.8358 18.5048 12.8012 18.5341 12.7723C18.5926 12.7087 18.6569 12.651 18.7213 12.599C18.733 12.5874 18.7681 12.5643 18.7856 12.5527C18.8207 12.5296 18.8558 12.5065 18.8909 12.4834C18.9669 12.4372 19.043 12.4025 19.119 12.3621C19.1307 12.3563 19.1249 12.3621 19.1307 12.3563C19.1716 12.339 19.2126 12.3274 19.2535 12.3101C19.3471 12.2812 19.4407 12.2581 19.5401 12.235C19.546 12.235 19.5694 12.235 19.5869 12.2292C19.6337 12.2292 19.6747 12.2234 19.7215 12.2176C19.8151 12.2176 19.9028 12.2176 19.9964 12.2176C20.0198 12.2176 20.0724 12.2292 20.09 12.2292C20.1192 12.2292 20.1485 12.2407 20.1777 12.2465C20.2654 12.2638 20.3473 12.287 20.4292 12.3158C20.4585 12.3274 20.4877 12.339 20.5169 12.3505C20.5286 12.3563 20.6047 12.391 20.6222 12.4025C20.6983 12.443 20.7685 12.4892 20.8445 12.5354C20.8503 12.5354 20.8737 12.5527 20.8913 12.5643C20.9147 12.5816 20.9381 12.6047 20.9615 12.6221C21.0258 12.6798 21.0843 12.7376 21.1428 12.8012C21.1721 12.8301 21.2013 12.8647 21.2247 12.8994C21.1428 12.8012 21.2656 12.9572 21.2715 12.963C21.3183 13.0323 21.3651 13.1074 21.406 13.1825C21.4236 13.2172 21.447 13.2576 21.4645 13.2981C21.4645 13.3038 21.4645 13.3038 21.4704 13.3154C21.4996 13.3963 21.5288 13.4772 21.5464 13.5638C21.5581 13.6043 21.5639 13.6505 21.5756 13.691C21.5756 13.7083 21.5815 13.7198 21.5873 13.7314C21.5873 13.743 21.5873 13.7545 21.5873 13.7718C21.6049 14.1474 21.5932 14.5287 21.5932 14.9101V16.2274C21.5815 16.551 21.7628 16.759 21.9968 16.8398C22.0845 16.8803 22.1781 16.9092 22.2834 16.9092C22.494 16.9092 22.6811 16.8052 22.8098 16.6492C22.8449 16.6087 22.88 16.5625 22.9034 16.5105C22.9151 16.4874 22.9209 16.4701 22.9268 16.447C22.9502 16.3776 22.9677 16.3083 22.9736 16.2274C23.0496 14.3843 25.7578 14.0087 26.1906 15.8576C26.3485 16.5394 26.2315 17.3598 26.2315 18.0532C26.2315 20.0696 26.2959 22.0976 26.1906 24.1083L26.1848 24.1025Z" fill="white"/>
</svg>
